<?xml version="1.0" encoding="UTF-8"?>
<svg version="1.1" xmlns="http://www.w3.org/2000/svg" width="153" height="151">
<path d="M0 0 C50.49 0 100.98 0 153 0 C153 49.83 153 99.66 153 151 C102.51 151 52.02 151 0 151 C0 101.17 0 51.34 0 0 Z " fill="#4E9EFF" transform="translate(0,0)"/>
<path d="M0 0 C50.49 0 100.98 0 153 0 C153 49.83 153 99.66 153 151 C102.51 151 52.02 151 0 151 C0 101.17 0 51.34 0 0 Z M67 6 C66.97307516 8.29160319 66.95363876 10.58329546 66.9375 12.875 C66.92589844 14.15117187 66.91429687 15.42734375 66.90234375 16.7421875 C66.76823431 19.88664652 66.76823431 19.88664652 68 22 C66.06060547 21.96132813 66.06060547 21.96132813 64.08203125 21.921875 C59.19045302 21.92570028 54.50933846 22.46396545 49.6875 23.25 C48.44963745 23.4502478 48.44963745 23.4502478 47.18676758 23.65454102 C36.74016871 25.44139211 26.34648606 27.83723771 19 36 C20.07401108 38.91517292 20.77810176 40.77810176 23 43 C21.82518228 46.22894685 20.57089392 48.68314698 18 51 C13.46437608 51.74678554 9.63644053 51.37466186 5 51 C5 55.29 5 59.58 5 64 C5.99 64.33 6.98 64.66 8 65 C7.9278125 65.69480469 7.855625 66.38960937 7.78125 67.10546875 C7.1191685 74.36077856 6.83662143 81.59179394 6.75 88.875 C6.72873047 89.76598389 6.70746094 90.65696777 6.68554688 91.57495117 C6.65625615 97.15535754 7.29738887 101.08019818 10 106 C12.76452033 107.38226016 15.0461363 107.09525387 18.125 107.0625 C19.22070312 107.05347656 20.31640625 107.04445313 21.4453125 107.03515625 C22.28835937 107.02355469 23.13140625 107.01195313 24 107 C23.87625 108.670625 23.87625 108.670625 23.75 110.375 C23.73104189 113.97704154 24.468808 116.47327922 25.9375 119.75 C28.13343778 124.68512149 28.47527341 129.06683846 28.53125 134.43359375 C28.77057132 137.12599719 28.77057132 137.12599719 30.87109375 138.859375 C32.97599886 140.2316116 32.97599886 140.2316116 35.5625 139.8125 C38.21378289 139.04750731 38.21378289 139.04750731 41 137 C41 135.68 41 134.36 41 133 C42.36125 133.4640625 42.36125 133.4640625 43.75 133.9375 C52.98176987 136.55966396 63.10463051 136.19324641 72.625 136.1875 C73.74567871 136.18814453 74.86635742 136.18878906 76.02099609 136.18945312 C85.45320729 136.13013952 94.67149636 135.34986099 104 134 C104.12890625 134.63292969 104.2578125 135.26585937 104.390625 135.91796875 C104.81316088 138.13296667 104.81316088 138.13296667 106.75 139.3125 C109.58092815 140.17750583 111.18845082 139.86509206 114 139 C114.99 138.34 115.98 137.68 117 137 C117.47472942 134.11716806 117.47472942 134.11716806 117.5 130.8125 C117.78032239 125.48637463 118.79353684 121.87260614 121 117 C121.52614698 113.67593125 121.8040322 110.35848268 122 107 C122.74765625 107.03480469 123.4953125 107.06960937 124.265625 107.10546875 C125.74289063 107.14607422 125.74289063 107.14607422 127.25 107.1875 C128.22453125 107.22230469 129.1990625 107.25710937 130.203125 107.29296875 C133.42776918 106.95519178 134.70790797 106.25529239 137 104 C138.23180134 100.30459598 138.12412112 96.89696622 138.09765625 93.05078125 C138.0962413 92.27816452 138.09482635 91.50554779 138.09336853 90.70951843 C138.08777466 88.24380611 138.07522333 85.77818485 138.0625 83.3125 C138.05748421 81.63997527 138.05292144 79.96744912 138.04882812 78.29492188 C138.03780724 74.19657954 138.02054684 70.09830521 138 66 C138.66 65.67 139.32 65.34 140 65 C140 60.38 140 55.76 140 51 C135.38 51 130.76 51 126 51 C125.67 49.35 125.34 47.7 125 46 C124.00916033 43.76591887 124.00916033 43.76591887 123 42 C123.7734375 41.4121875 123.7734375 41.4121875 124.5625 40.8125 C126.21638975 39.07326198 126.21638975 39.07326198 126.1875 36.625 C123.91601306 31.60381834 119.17356952 29.86634473 114.24609375 27.90234375 C107.6906143 25.70043941 101.0595634 24.35907544 94.25 23.25 C93.47035889 23.12222168 92.69071777 22.99444336 91.88745117 22.86279297 C86.54197221 22.05919099 81.40460692 21.89233851 76 22 C76.495 22.99 76.495 22.99 77 24 C79.49996394 24.59508154 79.49996394 24.59508154 82.546875 24.9296875 C83.70316406 25.08566406 84.85945313 25.24164062 86.05078125 25.40234375 C88.46982354 25.71142941 90.8890867 26.0187925 93.30859375 26.32421875 C103.62743306 27.72049734 114.65987223 29.32789778 123 36 C121.41332422 39.90285767 118.86649519 42.33520982 115.875 45.25 C114.96492188 46.14203125 114.05484375 47.0340625 113.1171875 47.953125 C112.06917969 48.96632813 112.06917969 48.96632813 111 50 C114.38023517 50 116.83468937 49.12544378 120 48 C120 50.31 120 52.62 120 55 C119.34 54.67 118.68 54.34 118 54 C116.62657169 53.9310528 115.24997898 53.91532292 113.875 53.9375 C111.956875 53.9684375 111.956875 53.9684375 110 54 C109.67 53.34 109.34 52.68 109 52 C107.02 52.99 107.02 52.99 105 54 C105 53.34 105 52.68 105 52 C106.07121094 51.65582031 106.07121094 51.65582031 107.1640625 51.3046875 C110.57936878 49.73345844 112.70513973 47.76354226 115.375 45.125 C116.26960938 44.26132812 117.16421875 43.39765625 118.0859375 42.5078125 C120.18107026 40.23749022 120.18107026 40.23749022 120.15625 37.83984375 C116.15791289 31.4776249 102.07144831 29.67124332 95 28 C94.19949219 27.79375 93.39898437 27.5875 92.57421875 27.375 C71.12352905 22.57111304 44.01656056 25.87710608 25 37 C24.67 37.99 24.34 38.98 24 40 C23.34 38.35 22.68 36.7 22 35 C23.10408203 34.56494141 23.10408203 34.56494141 24.23046875 34.12109375 C25.87105505 33.45699182 27.50324664 32.77023675 29.11328125 32.03515625 C40.26515242 27.10297877 52.63625441 25.82745523 64.67993164 24.73388672 C66.46120322 24.5558227 68.23290645 24.28638371 70 24 C71.55373847 20.89252306 70.58528628 18.25773473 70.0625 14.875 C69.86785156 13.59367188 69.67320313 12.31234375 69.47265625 10.9921875 C69.31667969 10.00476563 69.16070312 9.01734375 69 8 C71.64 8 74.28 8 77 8 C76.67 12.29 76.34 16.58 76 21 C76.99 20.67 77.98 20.34 79 20 C79.02685938 17.85423363 79.04633088 15.70837355 79.0625 13.5625 C79.07410156 12.36753906 79.08570312 11.17257812 79.09765625 9.94140625 C79.33901792 7.11126659 79.33901792 7.11126659 78 6 C76.14712498 5.92773498 74.29166122 5.9161878 72.4375 5.9375 C70.91962891 5.95103516 70.91962891 5.95103516 69.37109375 5.96484375 C68.58863281 5.97644531 67.80617187 5.98804688 67 6 Z " fill="#FEFEFF" transform="translate(0,0)"/>
<path d="M0 0 C1.26457031 -0.020625 2.52914062 -0.04125 3.83203125 -0.0625 C15.590376 -0.11093808 28.08536121 1.26977185 37.3125 9.25 C44.57920286 22.16858287 42.63275462 38.72905445 41.1875 52.9375 C41.11764893 53.65502441 41.04779785 54.37254883 40.97583008 55.11181641 C40.24689323 61.31321944 39.00749027 67.85077919 34.125 72.125 C24.29625054 78.80854963 11.97966359 78.57835948 0.5 78.5 C-0.63308594 78.50773437 -1.76617187 78.51546875 -2.93359375 78.5234375 C-12.94660209 78.50049819 -24.59296045 78.44359194 -33 72.25 C-41.41696058 62.28254668 -40.22142825 47.67575795 -40.3125 35.375 C-40.34150391 34.07691406 -40.37050781 32.77882812 -40.40039062 31.44140625 C-40.45241999 23.50892969 -39.95920268 16.29546029 -36 9.25 C-31.02640452 4.52525109 -24.51275653 2.88926525 -18 1.25 C-17.42282227 1.07726563 -16.84564453 0.90453125 -16.25097656 0.7265625 C-10.96649276 -0.39223494 -5.37852237 0.02140705 0 0 Z " fill="#FEFEFF" transform="translate(72,52.75)"/>
<path d="M0 0 C1.90234375 1.65234375 1.90234375 1.65234375 3 3 C1.21135158 4.81556788 -0.58071621 6.62751622 -2.375 8.4375 C-3.13683594 9.2119043 -3.13683594 9.2119043 -3.9140625 10.00195312 C-8.25559738 14.37205073 -10.05142859 15.12374198 -16.15869141 15.22460938 C-17.45408844 15.24712769 -18.74948547 15.269646 -20.08413696 15.29284668 C-26.0258276 15.36858102 -31.96762806 15.42156851 -37.90966797 15.45996094 C-41.04304071 15.4821984 -44.17521518 15.52390594 -47.30810547 15.58300781 C-51.09718136 15.65434287 -54.88513377 15.69082862 -58.67484665 15.70307922 C-60.11415656 15.71344121 -61.55343516 15.73577413 -62.99235916 15.77067566 C-75.64418395 16.06157052 -75.64418395 16.06157052 -80.75927734 11.60742188 C-81.85918718 10.42291255 -82.94177765 9.22189584 -84 8 C-85.65651812 6.65407903 -87.31806068 5.3140151 -89 4 C-88.05002735 1.59164915 -87.52239385 0.2764246 -85.19091797 -0.95727539 C-84.46533691 -1.16860107 -83.73975586 -1.37992676 -82.9921875 -1.59765625 C-81.77160645 -1.96189697 -81.77160645 -1.96189697 -80.52636719 -2.33349609 C-79.65141602 -2.57406738 -78.77646484 -2.81463867 -77.875 -3.0625 C-76.97426758 -3.31854004 -76.07353516 -3.57458008 -75.14550781 -3.83837891 C-49.63075638 -10.92280353 -24.59614868 -10.67506317 0 0 Z " fill="#FDFEFF" transform="translate(116,36)"/>
<path d="M0 0 C0 0.33 0 0.66 0 1 C-0.65226562 1.17015625 -1.30453125 1.3403125 -1.9765625 1.515625 C-10.88288172 3.79398632 -10.88288172 3.79398632 -17.21484375 10.046875 C-24.56778618 25.64243973 -23.01681925 49.75149586 -18 66 C-15.87120967 69.76871441 -14.18217311 72.4601261 -10.1875 74.25 C-9.56230469 74.54390625 -8.93710937 74.8378125 -8.29296875 75.140625 C-2.20070328 77.42392722 2.95826631 78.30092079 9.42578125 78.265625 C10.60722969 78.26849518 10.60722969 78.26849518 11.81254578 78.27142334 C13.47065553 78.27277723 15.12877618 78.26913676 16.78686523 78.26074219 C19.29500772 78.2500744 21.802427 78.26064223 24.31054688 78.2734375 C41.23494085 78.46815067 41.23494085 78.46815067 56 71 C63.32627964 62.69481889 62.5077564 48.48336439 62.44604492 37.96679688 C62.4374513 35.73736463 62.46657083 33.51043688 62.49804688 31.28125 C62.54177714 22.27418955 62.16679781 13.65700931 55.875 6.625 C51.75465453 4.29610908 47.44000749 2.62081827 43 1 C43 0.67 43 0.34 43 0 C46.1893841 -0.15187543 48.65413079 -0.12065205 51.6875 0.9375 C54.82971655 1.94538078 57.43574707 2.29842651 60.70703125 2.56640625 C62.19360229 2.6912439 62.19360229 2.6912439 63.71020508 2.81860352 C64.4658374 2.87846436 65.22146973 2.9383252 66 3 C65.99777939 3.59912704 65.99555878 4.19825409 65.99327087 4.8155365 C65.97121835 11.02797858 65.95609354 17.24040962 65.94506836 23.45288086 C65.94002667 25.77417451 65.93319349 28.09546497 65.92456055 30.41674805 C65.91248775 33.74528795 65.90677021 37.07378602 65.90234375 40.40234375 C65.89718246 41.44712387 65.89202118 42.49190399 65.88670349 43.56834412 C65.88659019 45.00972496 65.88659019 45.00972496 65.88647461 46.48022461 C65.884254 47.33071884 65.88203339 48.18121307 65.87974548 49.05747986 C65.78519716 51.00588545 65.78519716 51.00588545 67 52 C67.74636266 60.29610808 66.77257748 65.79333072 62.1875 72.75 C53.83729562 81.33878165 38.41400343 80.91158387 27.1953125 81.203125 C16.87642874 81.33555897 6.67967731 81.16039786 -3.5625 79.8125 C-4.39958496 79.71163086 -5.23666992 79.61076172 -6.09912109 79.50683594 C-11.82753668 78.64379343 -16.55903017 76.80925758 -21 73 C-25.25248529 66.75872689 -26.41657012 60.49826221 -26 53 C-25.34 52.01 -24.68 51.02 -24 50 C-23.97817537 47.1478564 -23.97817537 47.1478564 -24.37109375 43.8984375 C-25.10855399 35.45945954 -25.11184847 27.09059021 -25.0625 18.625 C-25.05746731 17.09895983 -25.05290758 15.57291802 -25.04882812 14.046875 C-25.03798019 10.36454846 -25.02081654 6.68228531 -25 3 C-23.41058594 2.80083984 -23.41058594 2.80083984 -21.7890625 2.59765625 C-20.40101721 2.41946125 -19.01299769 2.2410654 -17.625 2.0625 C-16.92632812 1.97548828 -16.22765625 1.88847656 -15.5078125 1.79882812 C-1.46779523 -0.02367412 -1.46779523 -0.02367412 0 0 Z " fill="#EEF6FF" transform="translate(52,53)"/>
<path d="M0 0 C2.9375 0.8125 2.9375 0.8125 4.9375 3.8125 C5.2159729 5.95756531 5.2159729 5.95756531 5.25634766 8.4675293 C5.27621735 9.40827805 5.29608704 10.34902679 5.31655884 11.31828308 C5.32811005 12.33086685 5.33966125 13.34345062 5.3515625 14.38671875 C5.37092865 15.42568802 5.3902948 16.46465729 5.4102478 17.53511047 C5.47007299 20.85665656 5.51644104 24.17823724 5.5625 27.5 C5.60067705 29.75066624 5.63972861 32.00131782 5.6796875 34.25195312 C5.77577689 39.77200544 5.86081581 45.29214586 5.9375 50.8125 C2.88809327 51.82896891 0.63380097 52.01094676 -2.5625 52.0625 C-3.5215625 52.08828125 -4.480625 52.1140625 -5.46875 52.140625 C-8.0625 51.8125 -8.0625 51.8125 -9.69970703 50.70776367 C-11.72527841 47.89076069 -11.45129122 45.59997237 -11.4609375 42.16015625 C-11.46524277 41.17709755 -11.46524277 41.17709755 -11.46963501 40.17417908 C-11.47167636 38.78302144 -11.4661414 37.39183515 -11.45361328 36.00073242 C-11.43778963 33.91320908 -11.45333483 31.82769122 -11.47265625 29.74023438 C-11.48757321 20.29850148 -11.08603594 10.11475596 -6.0625 1.8125 C-3.0625 -0.1875 -3.0625 -0.1875 0 0 Z " fill="#FCFDFF" transform="translate(21.0625,53.1875)"/>
<path d="M0 0 C3.15665876 0.92069214 4.01028873 1.37411981 6 3.875 C6.9140625 6.36328125 6.9140625 6.36328125 7.625 9.1875 C7.86476562 10.11175781 8.10453125 11.03601563 8.3515625 11.98828125 C10.00732122 19.3593999 10.21673717 26.40762791 10.25 33.9375 C10.270625 35.10861328 10.29125 36.27972656 10.3125 37.48632812 C10.31765625 38.61619141 10.3228125 39.74605469 10.328125 40.91015625 C10.34214355 42.44748413 10.34214355 42.44748413 10.35644531 44.01586914 C9.94149784 47.34425948 9.03127413 49.22176052 7 51.875 C4.1875 52.43359375 4.1875 52.43359375 1 52.3125 C-0.5778125 52.27962891 -0.5778125 52.27962891 -2.1875 52.24609375 C-5 51.875 -5 51.875 -8 49.875 C-7.93216309 49.14104004 -7.86432617 48.40708008 -7.79443359 47.65087891 C-7.24231595 41.18364144 -6.90311748 34.76132138 -6.7890625 28.2734375 C-6.76764191 27.16926483 -6.76764191 27.16926483 -6.74578857 26.04278564 C-6.68808342 22.99976745 -6.6329782 19.95695681 -6.59863281 16.91357422 C-6.5711441 14.6580781 -6.52538722 12.40355891 -6.4765625 10.1484375 C-6.47330963 9.46099457 -6.47005676 8.77355164 -6.46670532 8.0652771 C-6.3929444 5.22232047 -6.28607837 3.29324262 -4.65771484 0.91259766 C-3 -0.125 -3 -0.125 0 0 Z " fill="#FDFEFF" transform="translate(126,53.125)"/>
<path d="M0 0 C0.33 0 0.66 0 1 0 C1 3.96 1 7.92 1 12 C2.23267348 10.99163938 2.23267348 10.99163938 2.09765625 8.93359375 C2.08605469 8.10988281 2.07445312 7.28617188 2.0625 6.4375 C2.04896484 5.19806641 2.04896484 5.19806641 2.03515625 3.93359375 C2.02355469 3.29550781 2.01195312 2.65742187 2 2 C4.64 2 7.28 2 10 2 C9.319375 3.051875 8.63875 4.10375 7.9375 5.1875 C6.20626739 8.15647227 6.20626739 8.15647227 6.3125 11.5625 C6.539375 12.366875 6.76625 13.17125 7 14 C6.85119385 14.87930176 6.7023877 15.75860352 6.54907227 16.66455078 C5.93345404 20.40424673 5.87413645 24.02898208 5.90234375 27.8046875 C5.9037587 28.5286673 5.90517365 29.25264709 5.90663147 29.99856567 C5.91218925 32.29075407 5.92473367 34.58284157 5.9375 36.875 C5.94252047 38.43749858 5.94708241 39.99999871 5.95117188 41.5625 C5.96129016 45.3750693 5.98087336 49.1874229 6 53 C11.28 53 16.56 53 22 53 C21.79375 50.89625 21.5875 48.7925 21.375 46.625 C21.0234375 43.0390625 21.0234375 43.0390625 21 40 C21.66 39.34 22.32 38.68 23 38 C23.22185844 40.26955186 23.42705515 42.54073755 23.625 44.8125 C23.79902344 46.70935547 23.79902344 46.70935547 23.9765625 48.64453125 C24 52 24 52 22 55 C21.37401283 61.13467422 23.06611055 66.26847271 25 72 C25.33 72.99 25.66 73.98 26 75 C44.12687333 86.60119893 75.80554978 83.97339453 96 80 C100.72742171 78.86066968 105.37101547 77.4899544 110 76 C110.11723769 83.14172912 110.11723769 83.14172912 108 86 C105.875 86.75 105.875 86.75 104 87 C103.34 86.01 102.68 85.02 102 84 C97.91073362 82.61761084 94.50881276 83.24340719 90.3125 83.9375 C75.16816937 86.11622793 50.21491078 89.10745539 36 82 C35.896875 82.78375 35.79375 83.5675 35.6875 84.375 C35 87 35 87 32 89 C26.55555556 88.55555556 26.55555556 88.55555556 24 86 C23.7265625 83.53125 23.7265625 83.53125 23.625 80.5 C23.28544909 75.14406494 22.03207842 71.19205583 19.85546875 66.3359375 C18.54780842 62.76524856 18.72120387 59.76374775 19 56 C18.18015625 56.04640625 17.3603125 56.0928125 16.515625 56.140625 C14.89914063 56.19476563 14.89914063 56.19476563 13.25 56.25 C12.18265625 56.29640625 11.1153125 56.3428125 10.015625 56.390625 C7 56 7 56 4.671875 54.234375 C2.09810461 50.79466317 1.873317 47.69018789 1.8671875 43.47265625 C1.86525391 42.60342529 1.86332031 41.73419434 1.86132812 40.83862305 C1.86583984 39.92250244 1.87035156 39.00638184 1.875 38.0625 C1.87693359 37.12768799 1.87886719 36.19287598 1.88085938 35.22973633 C1.92504714 28.11243768 2.26415613 21.08249722 3 14 C2.01 13.67 1.02 13.34 0 13 C0 8.71 0 4.42 0 0 Z " fill="#4498FF" transform="translate(5,51)"/>
<path d="M0 0 C7.00054372 -0.20207755 13.48908021 0.51524421 20.375 1.75 C21.39070068 1.93046875 22.40640137 2.1109375 23.45288086 2.296875 C32.47569485 3.96892225 41.89186758 5.82714817 49 12 C50.0625 14.5 50.0625 14.5 50 17 C48.5625 19.3125 48.5625 19.3125 47 21 C47.495 21.763125 47.99 22.52625 48.5 23.3125 C50 26 50 26 50 29 C54.62 29 59.24 29 64 29 C64 33.62 64 38.24 64 43 C63.01 43.495 63.01 43.495 62 44 C62.01571045 45.03406982 62.0314209 46.06813965 62.04760742 47.13354492 C62.10204054 50.98193527 62.13639849 54.83029179 62.16479492 58.67895508 C62.17985114 60.34242481 62.20030063 62.00585505 62.22631836 63.66918945 C62.26284207 66.06471522 62.27975782 68.45971467 62.29296875 70.85546875 C62.30845261 71.5952446 62.32393646 72.33502045 62.33988953 73.09721375 C62.34134093 77.58319123 61.78478143 80.44084538 59 84 C56.35541621 85.32229189 54.32238699 85.09677194 51.375 85.0625 C50.37210938 85.05347656 49.36921875 85.04445313 48.3359375 85.03515625 C47.56507812 85.02355469 46.79421875 85.01195313 46 85 C45.94392578 85.96099609 45.94392578 85.96099609 45.88671875 86.94140625 C45.56801971 91.13448579 45.25052919 94.44674804 43.5 98.3125 C41.60748925 102.96492225 41.59087798 107.12299556 41.50390625 112.109375 C41 115 41 115 39.16015625 116.90625 C36.12937241 118.4408241 34.22128376 117.84033489 31 117 C30.34 116.67 29.68 116.34 29 116 C29 114.68 29 113.36 29 112 C32 113 32 113 33 115 C34.98 114.505 34.98 114.505 37 114 C37.33 111.36 37.66 108.72 38 106 C37.01 105.505 37.01 105.505 36 105 C36.52400391 104.31164062 36.52400391 104.31164062 37.05859375 103.609375 C37.51363281 102.99578125 37.96867187 102.3821875 38.4375 101.75 C38.88996094 101.14671875 39.34242187 100.5434375 39.80859375 99.921875 C42.12967954 96.17769727 42.13657477 92.64724981 42.125 88.3125 C42.12757812 87.33925781 42.13015625 86.36601563 42.1328125 85.36328125 C42.26572962 83.04362389 42.26572962 83.04362389 41 82 C40.56958268 75.61969621 41.18421051 69.32236857 42 63 C42.33 63 42.66 63 43 63 C43 68.94 43 74.88 43 81 C45.76452033 82.38226016 48.0461363 82.09525387 51.125 82.0625 C52.22070312 82.05347656 53.31640625 82.04445313 54.4453125 82.03515625 C55.28835937 82.02355469 56.13140625 82.01195313 57 82 C60.0370408 76.8901543 59.33960317 71.40282949 59.3125 65.625 C59.30903564 64.45428955 59.30557129 63.2835791 59.30200195 62.07739258 C59.13645676 46.74487803 59.13645676 46.74487803 53 33 C49.42003741 31.63099646 49.42003741 31.63099646 46 31 C46.20625 30.236875 46.4125 29.47375 46.625 28.6875 C47.33391203 25.78114056 47.33391203 25.78114056 45 23 C41.63408134 24.44253657 39.48952921 26.33264727 37 29 C36.34 28.67 35.68 28.34 35 28 C38.96 24.04 42.92 20.08 47 16 C45.82307756 12.46923268 45.30412924 12.2400682 42.125 10.5625 C30.43152327 5.01645104 16.67855103 3.72920594 3.9296875 2.4921875 C2.96289062 2.32976563 1.99609375 2.16734375 1 2 C0.67 1.34 0.34 0.68 0 0 Z " fill="#348FFF" transform="translate(76,22)"/>
<path d="M0 0 C2.64 0 5.28 0 8 0 C8 4.95 8 9.9 8 15 C9.79824219 15.24234375 11.59648438 15.4846875 13.44921875 15.734375 C15.86205719 16.07236015 18.2748133 16.41093338 20.6875 16.75 C21.86634766 16.90726563 23.04519531 17.06453125 24.25976562 17.2265625 C35.33793131 18.80482172 46.23819267 20.6645334 55 28 C53.41332422 31.90285767 50.86649519 34.33520982 47.875 37.25 C46.96492188 38.14203125 46.05484375 39.0340625 45.1171875 39.953125 C44.06917969 40.96632813 44.06917969 40.96632813 43 42 C43.99 41.34 44.98 40.68 46 40 C48.6875 39.875 48.6875 39.875 51 40 C52.125 44.75 52.125 44.75 51 47 C50.30132812 46.9278125 49.60265625 46.855625 48.8828125 46.78125 C47.97273438 46.6884375 47.06265625 46.595625 46.125 46.5 C45.22007813 46.4071875 44.31515625 46.314375 43.3828125 46.21875 C41.06686789 45.96952705 41.06686789 45.96952705 39 46 C38.01 46 37.02 46 36 46 C36 45.34 36 44.68 36 44 C37.37363151 43.10713952 38.74913516 42.21705546 40.1328125 41.33984375 C43.80323482 38.70604698 47.15967212 35.5107606 50 32 C50 31.01 50 30.02 50 29 C42.1028502 25.82356296 34.2894611 22.95910454 26 21 C25.19949219 20.79375 24.39898437 20.5875 23.57421875 20.375 C1.59397153 15.45251851 -22.78692319 19.81223781 -43 29 C-43 30.32 -43 31.64 -43 33 C-44.32 32.34 -45.64 31.68 -47 31 C-47 29.68 -47 28.36 -47 27 C-32.40895037 17.79870544 -15.75705606 17.02046179 1 15 C0.83628906 13.93652344 0.67257813 12.87304688 0.50390625 11.77734375 C-0.03284544 7.75378652 -0.07100885 4.04750418 0 0 Z " fill="#F4F9FF" transform="translate(69,8)"/>
<path d="M0 0 C1.81242052 -0.02687279 3.62495233 -0.04633715 5.4375 -0.0625 C6.44683594 -0.07410156 7.45617187 -0.08570313 8.49609375 -0.09765625 C11 0 11 0 12 1 C12.07258946 3.18639453 12.08373783 5.37500389 12.0625 7.5625 C12.05347656 8.76003906 12.04445313 9.95757812 12.03515625 11.19140625 C12.02355469 12.11824219 12.01195313 13.04507812 12 14 C11.01 14.33 10.02 14.66 9 15 C9.495 8.565 9.495 8.565 10 2 C7.36 2 4.72 2 2 2 C2.15597656 3.07121094 2.31195313 4.14242188 2.47265625 5.24609375 C2.66956217 6.64318814 2.86616093 8.04032584 3.0625 9.4375 C3.16626953 10.14455078 3.27003906 10.85160156 3.37695312 11.58007812 C3.62689163 13.38135907 3.81801314 15.19059041 4 17 C2.16307958 18.83692042 -0.79342717 18.54473154 -3.2734375 18.83203125 C-4.57410156 18.99123047 -5.87476563 19.15042969 -7.21484375 19.31445312 C-9.27853886 19.56348626 -11.34241834 19.80878633 -13.40771484 20.04418945 C-23.02252244 21.14999742 -32.27608454 22.51898667 -40.67724609 27.62817383 C-43 29 -43 29 -45 29 C-43.68775452 32.93673644 -42.08089673 35.22719294 -39 38 C-39.598125 38.20625 -40.19625 38.4125 -40.8125 38.625 C-43.81018767 40.50926082 -44.61361776 42.81132084 -46 46 C-45.34 46 -44.68 46 -44 46 C-43.67 45.34 -43.34 44.68 -43 44 C-42.34 45.32 -41.68 46.64 -41 48 C-40.24074219 47.91621094 -39.48148438 47.83242188 -38.69921875 47.74609375 C-37.20841797 47.59333984 -37.20841797 47.59333984 -35.6875 47.4375 C-34.20830078 47.28087891 -34.20830078 47.28087891 -32.69921875 47.12109375 C-30 47 -30 47 -27 48 C-27 47.34 -27 46.68 -27 46 C-27.57234375 45.7421875 -28.1446875 45.484375 -28.734375 45.21875 C-31.21128995 43.88634058 -33.1341166 42.34943882 -35.25 40.5 C-35.95640625 39.8915625 -36.6628125 39.283125 -37.390625 38.65625 C-39 37 -39 37 -39 35 C-35.8048123 36.40985 -33.67770868 38.13315182 -31.1875 40.5625 C-27.41659821 43.9725838 -25.04200847 44.89495816 -20 45 C-20 45.66 -20 46.32 -20 47 C-27.10951609 49.9491326 -31.85193505 50 -40 50 C-40 61.55 -40 73.1 -40 85 C-40.33 85 -40.66 85 -41 85 C-41.01458252 83.98574951 -41.02916504 82.97149902 -41.04418945 81.92651367 C-41.10216253 78.16345971 -41.17939459 74.40100479 -41.26245117 70.63842773 C-41.29570536 69.00994591 -41.32373584 67.38134869 -41.34643555 65.75268555 C-41.37997357 63.41144639 -41.43228585 61.07126514 -41.48828125 58.73046875 C-41.49467117 58.00224411 -41.5010611 57.27401947 -41.50764465 56.52372742 C-41.59260893 53.60284532 -41.68649727 51.48239783 -43.30151367 48.99731445 C-46.1798126 47.30723955 -48.87037718 48.35045564 -52 49 C-52.28875 49.94875 -52.5775 50.8975 -52.875 51.875 C-54 55 -54 55 -56 57 C-56 56.01 -56 55.02 -56 54 C-56.66 53.67 -57.32 53.34 -58 53 C-57.01 53 -56.02 53 -55 53 C-54.34 51.35 -53.68 49.7 -53 48 C-55.31 47.67 -57.62 47.34 -60 47 C-59.67 50.3 -59.34 53.6 -59 57 C-59.66 57 -60.32 57 -61 57 C-61 53.04 -61 49.08 -61 45 C-58.1846875 45.2475 -58.1846875 45.2475 -55.3125 45.5 C-50.73587558 45.63260855 -50.73587558 45.63260855 -47.08984375 43.21875 C-45.86133755 41.18437239 -44.85117227 39.21700683 -44 37 C-45.32 35.35 -46.64 33.7 -48 32 C-46.17740325 27.36066283 -43.24380509 25.03410148 -38.75390625 22.96484375 C-27.80623655 18.68663107 -14.84184382 15.75627933 -3.0625 15.9375 C-2.29035156 15.94652344 -1.51820312 15.95554687 -0.72265625 15.96484375 C-0.15417969 15.97644531 0.41429687 15.98804688 1 16 C0.505 15.01 0.505 15.01 0 14 C-0.07116382 11.62597499 -0.08409085 9.24999323 -0.0625 6.875 C-0.05347656 5.59367188 -0.04445312 4.31234375 -0.03515625 2.9921875 C-0.02355469 2.00476563 -0.01195312 1.01734375 0 0 Z " fill="#338EFF" transform="translate(67,6)"/>
<path d="M0 0 C0.80920898 0.5098645 0.80920898 0.5098645 1.63476562 1.0300293 C7.23162592 4.372866 12.05326217 6.02881824 18.5 6.8125 C19.39291748 6.92940186 20.28583496 7.04630371 21.20581055 7.16674805 C42.77022204 9.69969889 64.30665153 8.66067154 85 2 C85.11723769 9.14172912 85.11723769 9.14172912 83 12 C80.875 12.75 80.875 12.75 79 13 C78.01 11.515 78.01 11.515 77 10 C72.91073362 8.61761084 69.50881276 9.24340719 65.3125 9.9375 C50.16816937 12.11622793 25.21491078 15.10745539 11 8 C10.8453125 9.175625 10.8453125 9.175625 10.6875 10.375 C10 13 10 13 7 15 C3.8125 14.625 3.8125 14.625 1 14 C0.67 13.01 0.34 12.02 0 11 C0.66 11 1.32 11 2 11 C1.855625 10.37351563 1.71125 9.74703125 1.5625 9.1015625 C1.376875 8.28429687 1.19125 7.46703125 1 6.625 C0.814375 5.81289062 0.62875 5.00078125 0.4375 4.1640625 C0 2 0 2 0 0 Z " fill="#2F8CFF" transform="translate(30,125)"/>
<path d="M0 0 C0 0.66 0 1.32 0 2 C-1.08796875 1.73445313 -2.1759375 1.46890625 -3.296875 1.1953125 C-28.59674842 -4.92082279 -49.20578286 -4.89273213 -74.1875 2.5625 C-74.86490234 2.75996826 -75.54230469 2.95743652 -76.24023438 3.16088867 C-78.30638574 3.78405663 -78.30638574 3.78405663 -81 5 C-82.15811388 7.94729537 -82.15811388 7.94729537 -82 11 C-81.42765625 11.2578125 -80.8553125 11.515625 -80.265625 11.78125 C-77.78871005 13.11365942 -75.8658834 14.65056118 -73.75 16.5 C-72.69039062 17.41265625 -72.69039062 17.41265625 -71.609375 18.34375 C-70 20 -70 20 -70 22 C-72.26877104 22.24875561 -74.54019735 22.47339246 -76.8125 22.6875 C-78.07707031 22.81511719 -79.34164062 22.94273438 -80.64453125 23.07421875 C-84 23 -84 23 -85.82421875 21.51953125 C-86.21222656 21.01808594 -86.60023437 20.51664063 -87 20 C-87.66 20 -88.32 20 -89 20 C-87.52307692 14.33846154 -87.52307692 14.33846154 -84.875 12.625 C-83.946875 12.315625 -83.946875 12.315625 -83 12 C-83.5259375 11.13375 -83.5259375 11.13375 -84.0625 10.25 C-85 8 -85 8 -84.97265625 6.05078125 C-83.43830159 2.81569612 -80.55629422 2.11808465 -77.375 0.9375 C-76.70782959 0.68073486 -76.04065918 0.42396973 -75.35327148 0.15942383 C-50.47340652 -9.0200366 -24.95718308 -7.31901538 0 0 Z " fill="#4498FF" transform="translate(110,32)"/>
<path d="M0 0 C11.4663436 0.87443211 23.6020865 2.91408491 33.48828125 9.1171875 C34.14828125 10.4371875 34.80828125 11.7571875 35.48828125 13.1171875 C31.52828125 17.0771875 27.56828125 21.0371875 23.48828125 25.1171875 C24.47828125 24.4571875 25.46828125 23.7971875 26.48828125 23.1171875 C29.17578125 22.9921875 29.17578125 22.9921875 31.48828125 23.1171875 C32.61328125 27.8671875 32.61328125 27.8671875 31.48828125 30.1171875 C30.78960937 30.045 30.0909375 29.9728125 29.37109375 29.8984375 C28.46101563 29.805625 27.5509375 29.7128125 26.61328125 29.6171875 C25.70835938 29.524375 24.8034375 29.4315625 23.87109375 29.3359375 C21.55514914 29.08671455 21.55514914 29.08671455 19.48828125 29.1171875 C18.49828125 29.1171875 17.50828125 29.1171875 16.48828125 29.1171875 C16.48828125 28.4571875 16.48828125 27.7971875 16.48828125 27.1171875 C17.86191276 26.22432702 19.23741641 25.33424296 20.62109375 24.45703125 C24.29151607 21.82323448 27.64795337 18.6279481 30.48828125 15.1171875 C30.48828125 14.1271875 30.48828125 13.1371875 30.48828125 12.1171875 C18.95323071 7.47749308 7.75416249 4.13382175 -4.51171875 2.1171875 C-2.51171875 0.1171875 -2.51171875 0.1171875 0 0 Z " fill="#EFF6FF" transform="translate(88.51171875,24.8828125)"/>
<path d="M0 0 C1.48484412 0.39595843 2.9628831 0.81750706 4.4375 1.25 C5.26121094 1.48203125 6.08492187 1.7140625 6.93359375 1.953125 C9 3 9 3 10.109375 4.75390625 C9.93100041 8.41695583 7.3367613 10.30224683 4.8125 12.6875 C4.31685547 13.18572266 3.82121094 13.68394531 3.31054688 14.19726562 C0.7111235 16.72801203 -1.30564339 18.62086555 -5 19 C-5 19.66 -5 20.32 -5 21 C-3.35 20.34 -1.7 19.68 0 19 C0 19.66 0 20.32 0 21 C1.27875 20.979375 2.5575 20.95875 3.875 20.9375 C7.75 20.875 7.75 20.875 10 22 C10 19.69 10 17.38 10 15 C8.68 14.67 7.36 14.34 6 14 C6.99 13.01 7.98 12.02 9 11 C10.9375 11.625 10.9375 11.625 13 13 C14.40540541 18.18918919 14.40540541 18.18918919 13 21 C12.34 21 11.68 21 11 21 C10.67 32.88 10.34 44.76 10 57 C9.67 57 9.34 57 9 57 C8.04622816 52.99679847 7.8842384 49.27788253 7.90234375 45.16796875 C7.90556641 43.87568359 7.90878906 42.58339844 7.91210938 41.25195312 C7.92046335 39.89713474 7.92892828 38.54231703 7.9375 37.1875 C7.94252 35.81315265 7.94708203 34.43880355 7.95117188 33.06445312 C7.96294332 29.70959076 7.97938717 26.35481779 8 23 C7.26612061 23.01740234 6.53224121 23.03480469 5.77612305 23.05273438 C4.80199463 23.06626953 3.82786621 23.07980469 2.82421875 23.09375 C1.86346436 23.11115234 0.90270996 23.12855469 -0.0871582 23.14648438 C-4.36797468 22.9312057 -8.06796688 21.63106559 -12 20 C-12 19.34 -12 18.68 -12 18 C-11.39414063 17.97164062 -10.78828125 17.94328125 -10.1640625 17.9140625 C-1.61264056 16.940516 2.52515605 12.31354345 8 6 C5.41495396 4.01776932 2.95950142 2.37405423 0 1 C0 0.67 0 0.34 0 0 Z " fill="#4D9EFF" transform="translate(110,33)"/>
<path d="M0 0 C3.1893841 -0.15187543 5.65413079 -0.12065205 8.6875 0.9375 C11.82971655 1.94538078 14.43574707 2.29842651 17.70703125 2.56640625 C19.19360229 2.6912439 19.19360229 2.6912439 20.71020508 2.81860352 C21.4658374 2.87846436 22.22146973 2.9383252 23 3 C23.04941382 8.35683849 23.08572607 13.7135445 23.10986328 19.07055664 C23.11992491 20.89317129 23.1335756 22.71576979 23.15087891 24.53833008 C23.17512021 27.15710435 23.18648138 29.77566531 23.1953125 32.39453125 C23.20563507 33.21025101 23.21595764 34.02597076 23.22659302 34.8664093 C23.2273686 38.77130756 23.21650661 40.67524008 21 44 C20.95101562 42.82824219 20.90203125 41.65648437 20.8515625 40.44921875 C20.78176064 22.35511826 20.78176064 22.35511826 12.9375 6.875 C8.86386077 4.27480475 4.52707976 2.65260387 0 1 C0 0.67 0 0.34 0 0 Z " fill="#F9FCFF" transform="translate(95,53)"/>
<path d="M0 0 C1.1707608 0.0001133 1.1707608 0.0001133 2.36517334 0.00022888 C3.19760559 0.00539017 4.03003784 0.01055145 4.88769531 0.01586914 C5.74768127 0.01728409 6.60766724 0.01869904 7.49371338 0.02015686 C10.2344514 0.02574442 12.97510707 0.03829465 15.71582031 0.05102539 C17.57649621 0.056042 19.4371734 0.06060462 21.29785156 0.06469727 C25.85387277 0.07570978 30.40983259 0.09296588 34.96582031 0.11352539 C34.96582031 1.10352539 34.96582031 2.09352539 34.96582031 3.11352539 C35.64128906 3.42805664 36.31675781 3.74258789 37.01269531 4.06665039 C47.70445129 9.19622118 47.70445129 9.19622118 50.55175781 15.78149414 C52.75525325 22.57839331 52.2858609 29.62136508 52.15332031 36.67602539 C52.13824142 38.08030786 52.1245587 39.48460605 52.11230469 40.88891602 C52.07716437 44.29752654 52.02796154 47.70531809 51.96582031 51.11352539 C51.63582031 51.11352539 51.30582031 51.11352539 50.96582031 51.11352539 C50.95123779 50.41904297 50.93665527 49.72456055 50.92163086 49.0090332 C50.84612195 45.79336774 50.74980978 42.57862712 50.65332031 39.36352539 C50.61948242 37.72577148 50.61948242 37.72577148 50.58496094 36.05493164 C50.30555796 27.46964014 49.42428558 18.83377871 45.40332031 11.11352539 C34.5284394 2.19054618 19.65234314 2.84306745 6.40332031 2.98852539 C4.80632071 2.99857451 3.209315 3.00769695 1.61230469 3.01586914 C-2.27000975 3.03773148 -6.15202613 3.07215479 -10.03417969 3.11352539 C-7.03541791 0.11476361 -4.11465916 -0.01335928 0 0 Z " fill="#3D95FF" transform="translate(63.0341796875,50.886474609375)"/>
<path d="M0 0 C7.00054372 -0.20207755 13.48908021 0.51524421 20.375 1.75 C21.39070068 1.93046875 22.40640137 2.1109375 23.45288086 2.296875 C32.47569485 3.96892225 41.89186758 5.82714817 49 12 C50.0625 14.5 50.0625 14.5 50 17 C48.5625 19.3125 48.5625 19.3125 47 21 C47.495 21.763125 47.99 22.52625 48.5 23.3125 C50 26 50 26 50 29 C50.99 29.33 51.98 29.66 53 30 C50.69 30.33 48.38 30.66 46 31 C46.20625 30.236875 46.4125 29.47375 46.625 28.6875 C47.33391203 25.78114056 47.33391203 25.78114056 45 23 C41.63408134 24.44253657 39.48952921 26.33264727 37 29 C36.34 28.67 35.68 28.34 35 28 C38.96 24.04 42.92 20.08 47 16 C45.82307756 12.46923268 45.30412924 12.2400682 42.125 10.5625 C30.43152327 5.01645104 16.67855103 3.72920594 3.9296875 2.4921875 C2.96289062 2.32976563 1.99609375 2.16734375 1 2 C0.67 1.34 0.34 0.68 0 0 Z " fill="#2F8CFF" transform="translate(76,22)"/>
<path d="M0 0 C0.31263383 6.87794433 0.31263383 6.87794433 -2 10 C-4.125 10.75 -4.125 10.75 -6 11 C-6.66 10.01 -7.32 9.02 -8 8 C-12.24360803 6.52898524 -16.22923267 7.27219864 -20.5625 7.9375 C-38.80329201 10.46447199 -38.80329201 10.46447199 -44 7 C-43.31075439 6.95512451 -42.62150879 6.91024902 -41.91137695 6.86401367 C-28.44943518 5.96115397 -12.72270883 0 0 0 Z " fill="#2D8BFF" transform="translate(115,127)"/>
<path d="M0 0 C0.66 0 1.32 0 2 0 C2 0.66 2 1.32 2 2 C2.57234375 2.2578125 3.1446875 2.515625 3.734375 2.78125 C6.21128995 4.11365942 8.1341166 5.65056118 10.25 7.5 C10.95640625 8.1084375 11.6628125 8.716875 12.390625 9.34375 C14 11 14 11 14 13 C11.73122896 13.24875561 9.45980265 13.47339246 7.1875 13.6875 C5.92292969 13.81511719 4.65835937 13.94273438 3.35546875 14.07421875 C0 14 0 14 -1.82421875 12.51953125 C-2.21222656 12.01808594 -2.60023437 11.51664063 -3 11 C-3.66 11 -4.32 11 -5 11 C-3.52307692 5.33846154 -3.52307692 5.33846154 -0.875 3.625 C0.053125 3.315625 0.053125 3.315625 1 3 C0.67 2.01 0.34 1.02 0 0 Z " fill="#4399FF" transform="translate(26,41)"/>
<path d="M0 0 C0.33 0 0.66 0 1 0 C1 3.96 1 7.92 1 12 C2.23267348 10.99163938 2.23267348 10.99163938 2.09765625 8.93359375 C2.08605469 8.10988281 2.07445312 7.28617188 2.0625 6.4375 C2.04896484 5.19806641 2.04896484 5.19806641 2.03515625 3.93359375 C2.02355469 3.29550781 2.01195312 2.65742187 2 2 C4.64 2 7.28 2 10 2 C9.319375 3.051875 8.63875 4.10375 7.9375 5.1875 C6.20626739 8.15647227 6.20626739 8.15647227 6.3125 11.5625 C6.539375 12.366875 6.76625 13.17125 7 14 C6.67966741 16.00212341 6.34417612 18.00183737 6 20 C5.85886429 22.23501234 5.7554661 24.47262702 5.68359375 26.7109375 C5.64169922 27.95488281 5.59980469 29.19882813 5.55664062 30.48046875 C5.51732422 31.76566406 5.47800781 33.05085938 5.4375 34.375 C5.37272461 36.33759766 5.37272461 36.33759766 5.30664062 38.33984375 C5.20087571 41.55979797 5.09878421 44.77982531 5 48 C4.67 48 4.34 48 4 48 C3.67 36.78 3.34 25.56 3 14 C2.01 13.67 1.02 13.34 0 13 C0 8.71 0 4.42 0 0 Z " fill="#67ADFF" transform="translate(5,51)"/>
<path d="M0 0 C0 4.62 0 9.24 0 14 C-1.98 14.99 -1.98 14.99 -4 16 C-4.33 15.34 -4.66 14.68 -5 14 C-4.34 14 -3.68 14 -3 14 C-3.33 12.68 -3.66 11.36 -4 10 C-4.598125 9.938125 -5.19625 9.87625 -5.8125 9.8125 C-8.8766807 8.67437574 -9.40711699 6.78754527 -11 4 C-13.06954847 2.21655822 -13.06954847 2.21655822 -15 1 C-10.05392242 -0.49559965 -5.12641556 -0.06102876 0 0 Z " fill="#2888FF" transform="translate(140,51)"/>
<path d="M0 0 C2.64 0 5.28 0 8 0 C8 5.28 8 10.56 8 16 C5.69 16 3.38 16 1 16 C0.67 10.72 0.34 5.44 0 0 Z " fill="#5CA6FF" transform="translate(69,8)"/>
<path d="M0 0 C-2.86112162 1.53527598 -5.59561277 2.5340094 -8.73046875 3.3671875 C-10.05788086 3.73650391 -10.05788086 3.73650391 -11.41210938 4.11328125 C-13.27130197 4.62354523 -15.13336371 5.12346177 -16.99804688 5.61328125 C-17.87912109 5.86207031 -18.76019531 6.11085938 -19.66796875 6.3671875 C-20.47516357 6.58487793 -21.2823584 6.80256836 -22.11401367 7.02685547 C-24.20984221 7.83901674 -24.20984221 7.83901674 -24.77075195 10.10205078 C-24.84640381 10.72837402 -24.92205566 11.35469727 -25 12 C-25.99 11.67 -26.98 11.34 -28 11 C-27.94140625 9.1953125 -27.94140625 9.1953125 -27 7 C-24.61559281 5.7431498 -22.45053011 4.78444044 -19.9375 3.875 C-19.25518311 3.61710693 -18.57286621 3.35921387 -17.86987305 3.09350586 C-5.29204532 -1.57954294 -5.29204532 -1.57954294 0 0 Z " fill="#56A3FF" transform="translate(53,29)"/>
<path d="M0 0 C3.63 0 7.26 0 11 0 C11 1.32 11 2.64 11 4 C10.34 4 9.68 4 9 4 C8.71125 4.94875 8.4225 5.8975 8.125 6.875 C7 10 7 10 5 12 C5 11.01 5 10.02 5 9 C4.34 8.67 3.68 8.34 3 8 C3.99 8 4.98 8 6 8 C6.66 6.35 7.32 4.7 8 3 C5.69 2.67 3.38 2.34 1 2 C1.33 5.3 1.66 8.6 2 12 C1.34 12 0.68 12 0 12 C0 8.04 0 4.08 0 0 Z " fill="#2A88FF" transform="translate(6,51)"/>
<path d="M0 0 C0.99 0.33 1.98 0.66 3 1 C2.79375 1.680625 2.5875 2.36125 2.375 3.0625 C1.7918165 6.08499333 1.7918165 6.08499333 2.9375 9.25 C4.15620801 13.55132238 4.5860055 17.55325242 4 22 C3.34 22.99 2.68 23.98 2 25 C1.86722656 23.85402344 1.73445312 22.70804688 1.59765625 21.52734375 C1.41931812 19.99739032 1.24093004 18.46744271 1.0625 16.9375 C0.97548828 16.18533203 0.88847656 15.43316406 0.79882812 14.65820312 C0.38222764 11.09395457 -0.06464269 7.54798861 -0.62890625 4.00390625 C-0.75136719 3.01261719 -0.87382812 2.02132812 -1 1 C-0.67 0.67 -0.34 0.34 0 0 Z " fill="#2D8BFF" transform="translate(134,60)"/>
<path d="M0 0 C4.09211518 0.85648922 5.26283277 3.23724209 7.6875 6.5625 C4.3875 6.8925 1.0875 7.2225 -2.3125 7.5625 C-2.9725 6.2425 -3.6325 4.9225 -4.3125 3.5625 C-2.3125 0.5625 -2.3125 0.5625 0 0 Z " fill="#F8FBFF" transform="translate(28.3125,47.4375)"/>
<path d="M0 0 C0.66 0 1.32 0 2 0 C2.08078641 2.12438339 2.13909141 4.2496323 2.1875 6.375 C2.22230469 7.55835938 2.25710937 8.74171875 2.29296875 9.9609375 C2.19628906 10.96382812 2.09960938 11.96671875 2 13 C-1 15 -1 15 -4.0625 14.6875 C-7 14 -7 14 -9 13 C-9 11.68 -9 10.36 -9 9 C-6 10 -6 10 -5 12 C-3.68 11.67 -2.36 11.34 -1 11 C-0.67 8.36 -0.34 5.72 0 3 C-0.66 2.67 -1.32 2.34 -2 2 C-1.34 1.34 -0.68 0.68 0 0 Z " fill="#2B89FF" transform="translate(114,125)"/>
<path d="M0 0 C0.721875 0.12375 1.44375 0.2475 2.1875 0.375 C3.3125 5.125 3.3125 5.125 2.1875 7.375 C-1.1125 7.045 -4.4125 6.715 -7.8125 6.375 C-3.50480769 0.46730769 -3.50480769 0.46730769 0 0 Z " fill="#FBFCFF" transform="translate(117.8125,47.625)"/>
<path d="M0 0 C2.31 0 4.62 0 7 0 C7 1.98 7 3.96 7 6 C4.69 6.33 2.38 6.66 0 7 C0 4.69 0 2.38 0 0 Z " fill="#FDFEFF" transform="translate(69,8)"/>
<path d="M0 0 C0.66 0 1.32 0 2 0 C5.03910346 5.946072 5.65226572 11.36906706 6 18 C5.01 18.33 4.02 18.66 3 19 C2.95101563 18.18015625 2.90203125 17.3603125 2.8515625 16.515625 C2.77679687 15.43796875 2.70203125 14.3603125 2.625 13.25 C2.55539063 12.18265625 2.48578125 11.1153125 2.4140625 10.015625 C2.02175562 7.15844658 1.33587101 5.49797019 0 3 C0 2.01 0 1.02 0 0 Z " fill="#2686FF" transform="translate(26,118)"/>
<path d="M0 0 C1.9375 0.625 1.9375 0.625 4 2 C5.40540541 7.18918919 5.40540541 7.18918919 4 10 C3.34 10 2.68 10 2 10 C1.67 10.66 1.34 11.32 1 12 C1 9.36 1 6.72 1 4 C-0.32 3.67 -1.64 3.34 -3 3 C-2.01 2.01 -1.02 1.02 0 0 Z " fill="#53A1FF" transform="translate(119,44)"/>
<path d="M0 0 C3.3 0 6.6 0 10 0 C10 4.29 10 8.58 10 13 C9.01 13.33 8.02 13.66 7 14 C7.33 9.71 7.66 5.42 8 1 C5.36 1 2.72 1 0 1 C0 0.67 0 0.34 0 0 Z " fill="#3890FF" transform="translate(69,7)"/>
<path d="M0 0 C0.33 0.99 0.66 1.98 1 3 C0.36191406 3.61488281 -0.27617188 4.22976562 -0.93359375 4.86328125 C-2.17302734 6.07564453 -2.17302734 6.07564453 -3.4375 7.3125 C-4.26121094 8.11300781 -5.08492187 8.91351563 -5.93359375 9.73828125 C-8.19403477 11.90470808 -8.19403477 11.90470808 -9 15 C-10.98 15.33 -12.96 15.66 -15 16 C-15 15.34 -15 14.68 -15 14 C-13.62604055 13.10692635 -12.24972857 12.21731108 -10.86328125 11.34375 C-6.81292571 8.42273888 -2.25241024 4.50482048 0 0 Z " fill="#CAE3FF" transform="translate(120,38)"/>
<path d="M0 0 C2 0.8125 2 0.8125 3.25 2.875 C3.4975 3.514375 3.745 4.15375 4 4.8125 C3.34 5.4725 2.68 6.1325 2 6.8125 C0 6.75 0 6.75 -2 5.8125 C-3.25 3.25 -3.25 3.25 -4 0.8125 C-2 -0.1875 -2 -0.1875 0 0 Z " fill="#F1F8FF" transform="translate(110,131.1875)"/>
<path d="M0 0 C1.67542976 0.28604898 3.34385343 0.61781233 5 1 C4.75 2.875 4.75 2.875 4 5 C2.0625 6.3125 2.0625 6.3125 0 7 C-0.66 6.67 -1.32 6.34 -2 6 C-1.125 1.125 -1.125 1.125 0 0 Z " fill="#F5FAFF" transform="translate(34,131)"/>
<path d="M0 0 C2.31 0 4.62 0 7 0 C7 2.31 7 4.62 7 7 C4.625 6.3125 4.625 6.3125 2 5 C0.6875 2.375 0.6875 2.375 0 0 Z " fill="#F8FBFF" transform="translate(131,53)"/>
<path d="M0 0 C2.97 1.65 5.94 3.3 9 5 C9 5.66 9 6.32 9 7 C7.35 7 5.7 7 4 7 C3.67 7.66 3.34 8.32 3 9 C2.34 9 1.68 9 1 9 C0.67 6.03 0.34 3.06 0 0 Z " fill="#6CAFFF" transform="translate(30,125)"/>
<path d="M0 0 C2.31 0 4.62 0 7 0 C5.75 2.9375 5.75 2.9375 4 6 C1.8125 6.875 1.8125 6.875 0 7 C0 4.69 0 2.38 0 0 Z " fill="#F4F9FF" transform="translate(8,53)"/>
<path d="M0 0 C2.0625 0.4375 2.0625 0.4375 4 1 C4 2.98 4 4.96 4 7 C2.35 7 0.7 7 -1 7 C-1.04254356 5.00045254 -1.04080783 2.99958364 -1 1 C-0.67 0.67 -0.34 0.34 0 0 Z " fill="#F1F7FF" transform="translate(71,15)"/>
<path d="M0 0 C0.66 0.33 1.32 0.66 2 1 C1.125 6.875 1.125 6.875 0 8 C-0.23481693 10.18292774 -0.41363323 12.37203174 -0.5625 14.5625 C-0.68818359 16.35880859 -0.68818359 16.35880859 -0.81640625 18.19140625 C-0.87699219 19.11824219 -0.93757813 20.04507813 -1 21 C-1.33 21 -1.66 21 -2 21 C-3.70159453 6.21867882 -3.70159453 6.21867882 0 0 Z " fill="#58A4FF" transform="translate(118,116)"/>
<path d="M0 0 C0.66 0 1.32 0 2 0 C2 0.66 2 1.32 2 2 C2.57234375 2.2578125 3.1446875 2.515625 3.734375 2.78125 C6.21128995 4.11365942 8.1341166 5.65056118 10.25 7.5 C11.30960938 8.41265625 11.30960938 8.41265625 12.390625 9.34375 C14 11 14 11 14 13 C11 13 11 13 9.5703125 11.64453125 C8.85488281 10.73767578 8.85488281 10.73767578 8.125 9.8125 C6.21526326 7.45874946 4.30250284 5.23445588 2.125 3.125 C1.42375 2.42375 0.7225 1.7225 0 1 C0 0.67 0 0.34 0 0 Z " fill="#D4E8FF" transform="translate(26,41)"/>
<path d="M0 0 C-0.33 0.66 -0.66 1.32 -1 2 C-3.36328125 2.484375 -3.36328125 2.484375 -6.3125 2.75 C-7.27800781 2.84796875 -8.24351563 2.9459375 -9.23828125 3.046875 C-12.11379693 2.99806851 -13.58180146 2.49342428 -16 1 C-10.61509359 0.08342019 -5.45769811 -0.11138159 0 0 Z " fill="#3C94FF" transform="translate(68,22)"/>
<path d="M0 0 C0 1.98 0 3.96 0 6 C-6.15234375 5.4140625 -6.15234375 5.4140625 -8 5 C-8.33 4.34 -8.66 3.68 -9 3 C-7.68825887 2.4980125 -6.37558403 1.99846423 -5.0625 1.5 C-4.33160156 1.2215625 -3.60070312 0.943125 -2.84765625 0.65625 C-1 0 -1 0 0 0 Z " fill="#72B2FF" transform="translate(115,127)"/>
<path d="M0 0 C-0.33 0.66 -0.66 1.32 -1 2 C-3.28515625 2.4140625 -3.28515625 2.4140625 -6.0625 2.625 C-7.44115234 2.73714844 -7.44115234 2.73714844 -8.84765625 2.8515625 C-9.55792969 2.90054687 -10.26820312 2.94953125 -11 3 C-11.33 2.01 -11.66 1.02 -12 0 C-3.42857143 -1.28571429 -3.42857143 -1.28571429 0 0 Z " fill="#E0EEFF" transform="translate(65,25)"/>
<path d="M0 0 C0.66 1.32 1.32 2.64 2 4 C0.5625 5.5625 0.5625 5.5625 -2 7 C-5.05380927 6.96846324 -7.99653222 6.53266629 -11 6 C-11 5.67 -11 5.34 -11 5 C-10.37351562 4.97421875 -9.74703125 4.9484375 -9.1015625 4.921875 C-8.28429687 4.86515625 -7.46703125 4.8084375 -6.625 4.75 C-5.81289062 4.70359375 -5.00078125 4.6571875 -4.1640625 4.609375 C-1.81161073 4.2077908 -1.81161073 4.2077908 -0.7109375 1.953125 C-0.47632813 1.30859375 -0.24171875 0.6640625 0 0 Z " fill="#3A93FF" transform="translate(135,100)"/>
<path d="M0 0 C0 0.33 0 0.66 0 1 C-0.68707031 1.20496094 -1.37414063 1.40992188 -2.08203125 1.62109375 C-2.98308594 1.89050781 -3.88414063 2.15992188 -4.8125 2.4375 C-6.15248047 2.83775391 -6.15248047 2.83775391 -7.51953125 3.24609375 C-9.35473055 3.80387873 -11.18033726 4.39344575 -13 5 C-13.33 4.01 -13.66 3.02 -14 2 C-9.07262981 0.02905192 -5.21979128 -0.1799928 0 0 Z " fill="#E2F0FF" transform="translate(52,53)"/>
<path d="M0 0 C0.99 0.33 1.98 0.66 3 1 C3 2.32 3 3.64 3 5 C2.34 5 1.68 5 1 5 C0.67 5.99 0.34 6.98 0 8 C-0.38063221 5.6739143 -0.71269945 3.33944736 -1 1 C-0.67 0.67 -0.34 0.34 0 0 Z " fill="#8BC1FF" transform="translate(134,60)"/>
<path d="M0 0 C1.9375 0.625 1.9375 0.625 4 2 C4.75 5.125 4.75 5.125 5 8 C2.5 5.6875 2.5 5.6875 0 3 C0 2.01 0 1.02 0 0 Z " fill="#DFEEFF" transform="translate(119,44)"/>
<path d="M0 0 C1.98 0 3.96 0 6 0 C6 0.66 6 1.32 6 2 C4.1875 3.0625 4.1875 3.0625 2 4 C1.01 3.67 0.02 3.34 -1 3 C-0.67 2.01 -0.34 1.02 0 0 Z " fill="#5BA7FF" transform="translate(92,51)"/>
<path d="M0 0 C0.66 0.66 1.32 1.32 2 2 C1.2884375 2.6496875 1.2884375 2.6496875 0.5625 3.3125 C-1.23686957 5.02309613 -1.23686957 5.02309613 -2 8 C-2.66 8 -3.32 8 -4 8 C-2.25 2.25 -2.25 2.25 0 0 Z " fill="#DFEEFF" transform="translate(25,44)"/>
</svg>
