<?xml version="1.0" encoding="UTF-8"?>
<svg version="1.1" xmlns="http://www.w3.org/2000/svg" width="212" height="103">
<path d="M0 0 C69.96 0 139.92 0 212 0 C212 33.99 212 67.98 212 103 C142.04 103 72.08 103 0 103 C0 69.01 0 35.02 0 0 Z " fill="#FFFFFF" transform="translate(0,0)"/>
<path d="M0 0 C69.96 0 139.92 0 212 0 C212 33.99 212 67.98 212 103 C142.04 103 72.08 103 0 103 C0 69.01 0 35.02 0 0 Z M5 3 C5 35.01 5 67.02 5 100 C71.33 100 137.66 100 206 100 C206 67.99 206 35.98 206 3 C139.67 3 73.34 3 5 3 Z " fill="#57A2FF" transform="translate(0,0)"/>
<path d="M0 0 C66.99 0 133.98 0 203 0 C203.33 33.33 203.66 66.66 204 101 C136.35 101 68.7 101 -1 101 C-0.67 67.67 -0.34 34.34 0 0 Z M1 1 C1 33.01 1 65.02 1 98 C67.33 98 133.66 98 202 98 C202 65.99 202 33.98 202 1 C135.67 1 69.34 1 1 1 Z " fill="#338EFF" transform="translate(4,2)"/>
<path d="M0 0 C1.32 0 2.64 0 4 0 C4 33.99 4 67.98 4 103 C3.01 103 2.02 103 1 103 C0.67 69.01 0.34 35.02 0 0 Z " fill="#FEFEFF" transform="translate(208,0)"/>
</svg>
