<?xml version="1.0" encoding="UTF-8"?>
<svg version="1.1" xmlns="http://www.w3.org/2000/svg" width="387" height="182">
<path d="M0 0 C127.71 0 255.42 0 387 0 C387 60.06 387 120.12 387 182 C259.29 182 131.58 182 0 182 C0 121.94 0 61.88 0 0 Z " fill="#FFFFFF" transform="translate(0,0)"/>
<path d="M0 0 C127.71 0 255.42 0 387 0 C387 60.06 387 120.12 387 182 C259.29 182 131.58 182 0 182 C0 121.94 0 61.88 0 0 Z M11 3 C11 58.77 11 114.54 11 172 C132.11 172 253.22 172 378 172 C378 116.23 378 60.46 378 3 C256.89 3 135.78 3 11 3 Z " fill="#7BB7FF" transform="translate(0,0)"/>
<path d="M0 0 C2.64 0 5.28 0 8 0 C8 6.6 8 13.2 8 20 C6.68 20 5.36 20 4 20 C4 64.55 4 109.1 4 155 C5.32 155 6.64 155 8 155 C8.33 161.27 8.66 167.54 9 174 C24.84 174.33 40.68 174.66 57 175 C57 176.32 57 177.64 57 179 C60.3 179 63.6 179 67 179 C66.67 177.68 66.34 176.36 66 175 C106.92 175 147.84 175 190 175 C189.67 176.32 189.34 177.64 189 179 C192.3 179 195.6 179 199 179 C199 177.68 199 176.36 199 175 C239.92 175 280.84 175 323 175 C322.67 176.32 322.34 177.64 322 179 C325.3 179 328.6 179 332 179 C332 177.68 332 176.36 332 175 C347.84 174.67 363.68 174.34 380 174 C380.33 167.73 380.66 161.46 381 155 C382.32 155 383.64 155 385 155 C385 110.45 385 65.9 385 20 C383.68 20 382.36 20 381 20 C381 13.4 381 6.8 381 0 C382.98 0 384.96 0 387 0 C387 60.06 387 120.12 387 182 C259.29 182 131.58 182 0 182 C0 121.94 0 61.88 0 0 Z " fill="#FEFEFF" transform="translate(0,0)"/>
<path d="M0 0 C0.33 0 0.66 0 1 0 C1 6.6 1 13.2 1 20 C2.32 20 3.64 20 5 20 C5 64.55 5 109.1 5 155 C3.35 155 1.7 155 0 155 C0 160.61 0 166.22 0 172 C-0.33 172 -0.66 172 -1 172 C-1.02346616 152.52707823 -1.04104605 133.05415937 -1.05181217 113.58122635 C-1.05694619 104.5375445 -1.06393306 95.49387149 -1.07543945 86.45019531 C-1.08547543 78.55838983 -1.09187442 70.66659076 -1.09408849 62.77477908 C-1.09538062 58.60463844 -1.09836975 54.43451612 -1.10573006 50.26438141 C-1.13423877 33.48748564 -1.14936689 16.74747531 0 0 Z " fill="#6FB0FF" transform="translate(380,0)"/>
<path d="M0 0 C0.33 0 0.66 0 1 0 C1.02888514 3.14581423 1.04675923 6.29159469 1.0625 9.4375 C1.07087891 10.33533203 1.07925781 11.23316406 1.08789062 12.15820312 C1.09272461 13.43920898 1.09272461 13.43920898 1.09765625 14.74609375 C1.10551147 15.93223267 1.10551147 15.93223267 1.11352539 17.14233398 C1 19 1 19 0 20 C-1.50418739 20.09311889 -3.01271356 20.11746028 -4.51977539 20.11352539 C-5.96115623 20.11341209 -5.96115623 20.11341209 -7.43165588 20.11329651 C-8.476436 20.10813522 -9.52121613 20.10297394 -10.59765625 20.09765625 C-11.66165146 20.0962413 -12.72564667 20.09482635 -13.82188416 20.09336853 C-17.23545083 20.08775064 -20.648953 20.07519511 -24.0625 20.0625 C-26.37044176 20.05748731 -28.67838455 20.052924 -30.98632812 20.04882812 C-36.65757426 20.0377754 -42.32878253 20.02101987 -48 20 C-48 21.32 -48 22.64 -48 24 C-51.3 24 -54.6 24 -58 24 C-58 23.01 -58 22.02 -58 21 C-98.59 20.67 -139.18 20.34 -181 20 C-181 21.32 -181 22.64 -181 24 C-184.3 24 -187.6 24 -191 24 C-191 23.01 -191 22.02 -191 21 C-231.26 21 -271.52 21 -313 21 C-313 21.99 -313 22.98 -313 24 C-316.3 24 -319.6 24 -323 24 C-323 22.68 -323 21.36 -323 20 C-338.84 20 -354.68 20 -371 20 C-371 19.67 -371 19.34 -371 19 C-331.59426818 18.02070641 -292.20115298 17.79771082 -252.78570332 17.70291888 C-243.99650285 17.68160605 -235.20731916 17.65527043 -226.4181331 17.62875474 C-210.75670977 17.58163191 -195.09527859 17.53822654 -179.43383789 17.49731445 C-164.26163123 17.45767207 -149.08943139 17.41618213 -133.91723633 17.37231445 C-132.97479664 17.36959018 -132.03235695 17.36686591 -131.06135849 17.36405908 C-126.33125796 17.35037493 -121.60115753 17.33665558 -116.87105715 17.32291877 C-77.91405247 17.20982785 -38.95703285 17.10289949 0 17 C0 11.39 0 5.78 0 0 Z " fill="#2989FF" transform="translate(380,155)"/>
<path d="M0 0 C122.76 0 245.52 0 372 0 C372 6.6 372 13.2 372 20 C371.67 20 371.34 20 371 20 C371 14.06 371 8.12 371 2 C249.23 2 127.46 2 2 2 C2 7.61 2 13.22 2 19 C1.34 19.33 0.68 19.66 0 20 C0 13.4 0 6.8 0 0 Z " fill="#1B7FFF" transform="translate(8,0)"/>
<path d="M0 0 C43.56 0 87.12 0 132 0 C132 0.33 132 0.66 132 1 C89.76 1 47.52 1 4 1 C4 1.66 4 2.32 4 3 C4.66 3 5.32 3 6 3 C6 3.99 6 4.98 6 6 C2.7 6 -0.6 6 -4 6 C-4 5.01 -4 4.02 -4 3 C-2.68 3 -1.36 3 0 3 C0 2.01 0 1.02 0 0 Z " fill="#1D80FF" transform="translate(193,173)"/>
<path d="M0 0 C0.33 0 0.66 0 1 0 C1.13052399 16.89808197 1.26091636 33.79616495 1.39115143 50.69424915 C1.45162291 58.54006307 1.51213769 66.38587665 1.57275391 74.23168945 C1.62557795 81.06894242 1.67832126 87.906196 1.73096704 94.74345034 C1.7588533 98.36474731 1.78678037 101.98604395 1.81480408 105.60733986 C1.84606255 109.64683564 1.8771408 113.68633279 1.90820312 117.72583008 C1.91755386 118.93064026 1.9269046 120.13545044 1.9365387 121.37677002 C1.94495285 122.47473404 1.953367 123.57269806 1.96203613 124.70393372 C1.96941048 125.65983304 1.97678482 126.61573236 1.98438263 127.60059834 C2.00488595 130.75066095 1.97035465 133.86785395 1.78125 137.01171875 C1.73613281 137.76904297 1.69101562 138.52636719 1.64453125 139.30664062 C1.59683594 140.09232422 1.54914063 140.87800781 1.5 141.6875 C1.45230469 142.48478516 1.40460938 143.28207031 1.35546875 144.10351562 C1.2377716 146.06905803 1.11899029 148.03453546 1 150 C0.67 150 0.34 150 0 150 C0 100.5 0 51 0 0 Z " fill="#1B7FFF" transform="translate(379,22)"/>
<path d="M0 0 C1.32 0 2.64 0 4 0 C3.67 7.26 3.34 14.52 3 22 C2.67 22 2.34 22 2 22 C2 15.73 2 9.46 2 3 C0.68 2.67 -0.64 2.34 -2 2 C-1.34 1.34 -0.68 0.68 0 0 Z " fill="#308EFF" transform="translate(6,152)"/>
</svg>
