<?xml version="1.0" encoding="UTF-8"?>
<svg version="1.1" xmlns="http://www.w3.org/2000/svg" width="188" height="153">
<path d="M0 0 C62.04 0 124.08 0 188 0 C188 50.49 188 100.98 188 153 C125.96 153 63.92 153 0 153 C0 102.51 0 52.02 0 0 Z " fill="#FEFEFF" transform="translate(0,0)"/>
<path d="M0 0 C62.04 0 124.08 0 188 0 C188 50.49 188 100.98 188 153 C125.96 153 63.92 153 0 153 C0 102.51 0 52.02 0 0 Z M12 12 C11.901712 13.65525823 11.87368024 15.31472672 11.87301636 16.97290039 C11.87019653 18.04984161 11.86737671 19.12678284 11.86447144 20.23635864 C11.86649567 21.42808685 11.8685199 22.61981506 11.87060547 23.84765625 C11.86885315 25.09465302 11.86710083 26.34164978 11.86529541 27.62643433 C11.86163711 31.05610604 11.86251039 34.48571779 11.8656745 37.9153862 C11.86819839 41.49705845 11.86586048 45.07872805 11.86428833 48.66040039 C11.86246672 54.67627424 11.86487272 60.69213583 11.86962891 66.70800781 C11.87507151 73.67272327 11.87330885 80.63740946 11.8678025 87.60212421 C11.86327113 93.57153989 11.86262094 99.54094674 11.86524117 105.51036358 C11.86680381 109.0801663 11.86699807 112.64995524 11.86370468 116.21975708 C11.86029175 120.19729763 11.86501611 124.17480514 11.87060547 128.15234375 C11.86858124 129.34407196 11.86655701 130.53580017 11.86447144 131.76364136 C11.86729126 132.84058258 11.87011108 133.9175238 11.87301636 135.02709961 C11.87339338 135.96879501 11.87377041 136.91049042 11.87415886 137.88072205 C11.76377199 139.9850886 11.76377199 139.9850886 13 141 C15.07330397 141.09902902 17.15004048 141.12632326 19.22570801 141.12698364 C20.21210919 141.12932363 20.21210919 141.12932363 21.21843767 141.13171089 C23.43796513 141.13572266 25.65742507 141.13253058 27.87695312 141.12939453 C29.46166525 141.13074849 31.04637705 141.1325284 32.63108826 141.13470459 C36.94708204 141.13927952 41.26305203 141.13748912 45.57904625 141.1343255 C50.08561647 141.13180221 54.59218459 141.13413936 59.09875488 141.13571167 C66.66821663 141.13753346 74.23766864 141.13512682 81.80712891 141.13037109 C90.57138426 141.12492846 99.33561636 141.12669111 108.09987116 141.1321975 C115.61067482 141.13672838 123.12147147 141.1373793 130.63227606 141.13475883 C135.12428513 141.13319591 139.61628325 141.13300268 144.10829163 141.13629532 C148.33038998 141.13917366 152.55245821 141.13719902 156.7745533 141.13140106 C158.32863884 141.13007327 159.88272689 141.13046791 161.43681145 141.13266373 C163.54933977 141.13537448 165.66177001 141.13199506 167.77429199 141.12698364 C168.95934074 141.12660662 170.1443895 141.12622959 171.36534882 141.12584114 C173.92458326 141.29960537 173.92458326 141.29960537 175 140 C175.098288 138.34474177 175.12631976 136.68527328 175.12698364 135.02709961 C175.12980347 133.95015839 175.13262329 132.87321716 175.13552856 131.76364136 C175.13350433 130.57191315 175.1314801 129.38018494 175.12939453 128.15234375 C175.13114685 126.90534698 175.13289917 125.65835022 175.13470459 124.37356567 C175.13836289 120.94389396 175.13748961 117.51428221 175.1343255 114.0846138 C175.13180161 110.50294155 175.13413952 106.92127195 175.13571167 103.33959961 C175.13753328 97.32372576 175.13512728 91.30786417 175.13037109 85.29199219 C175.12492849 78.32727673 175.12669115 71.36259054 175.1321975 64.39787579 C175.13672887 58.42846011 175.13737906 52.45905326 175.13475883 46.48963642 C175.13319619 42.9198337 175.13300193 39.35004476 175.13629532 35.78024292 C175.13970825 31.80270237 175.13498389 27.82519486 175.12939453 23.84765625 C175.13243088 22.06006393 175.13243088 22.06006393 175.13552856 20.23635864 C175.13270874 19.15941742 175.12988892 18.0824762 175.12698364 16.97290039 C175.12660662 16.03120499 175.12622959 15.08950958 175.12584114 14.11927795 C175.23622801 12.0149114 175.23622801 12.0149114 174 11 C171.92669603 10.90097098 169.84995952 10.87367674 167.77429199 10.87301636 C167.1166912 10.87145637 166.45909041 10.86989638 165.78156233 10.86828911 C163.56203487 10.86427734 161.34257493 10.86746942 159.12304688 10.87060547 C157.53833475 10.86925151 155.95362295 10.8674716 154.36891174 10.86529541 C150.05291796 10.86072048 145.73694797 10.86251088 141.42095375 10.8656745 C136.91438353 10.86819779 132.40781541 10.86586064 127.90124512 10.86428833 C120.33178337 10.86246654 112.76233136 10.86487318 105.19287109 10.86962891 C96.42861574 10.87507154 87.66438364 10.87330889 78.90012884 10.8678025 C71.38932518 10.86327162 63.87852853 10.8626207 56.36772394 10.86524117 C51.87571487 10.86680409 47.38371675 10.86699732 42.89170837 10.86370468 C38.66961002 10.86082634 34.44754179 10.86280098 30.2254467 10.86859894 C28.67136116 10.86992673 27.11727311 10.86953209 25.56318855 10.86733627 C23.45066023 10.86462552 21.33822999 10.86800494 19.22570801 10.87301636 C17.44813488 10.8735819 17.44813488 10.8735819 15.63465118 10.87415886 C13.07541674 10.70039463 13.07541674 10.70039463 12 12 Z " fill="#FBFDFF" transform="translate(0,0)"/>
<path d="M0 0 C62.04 0 124.08 0 188 0 C188 50.49 188 100.98 188 153 C125.96 153 63.92 153 0 153 C0 102.51 0 52.02 0 0 Z M6.09678459 5.17745781 C4.56884228 7.71646077 4.6223835 9.58293698 4.61904907 12.54162598 C4.6105896 13.69415359 4.60213013 14.84668121 4.59341431 16.03413391 C4.599487 17.29968613 4.60555969 18.56523834 4.61181641 19.86914062 C4.60775163 21.21445645 4.60241028 22.55976893 4.59588623 23.90507507 C4.58219543 27.56002404 4.58751841 31.21471931 4.59702349 34.86967278 C4.60461101 38.6919715 4.597577 42.51424829 4.59286499 46.33654785 C4.58740478 52.75581773 4.59460597 59.17498411 4.60888672 65.59423828 C4.62521381 73.01914021 4.61992548 80.44379503 4.6034075 87.86869097 C4.58980015 94.23989241 4.58786927 100.61101939 4.59572351 106.98223066 C4.60040419 110.78908305 4.60101413 114.59581923 4.59111404 118.40266418 C4.58245749 121.98141377 4.58844187 125.55984428 4.60579681 129.13855934 C4.61166573 131.08099044 4.60273491 133.02344848 4.59341431 134.96586609 C4.60187378 136.11839371 4.61033325 137.27092133 4.61904907 138.45837402 C4.62018015 139.4619973 4.62131123 140.46562057 4.62247658 141.49965668 C4.83562085 143.98944221 4.83562085 143.98944221 6.09678459 145.82254219 C8.99550746 147.61588826 11.44418937 147.3778957 14.83239746 147.38095093 C15.88049851 147.38797089 15.88049851 147.38797089 16.94977331 147.39513266 C19.29678536 147.4071219 21.64321774 147.39761049 23.99023438 147.38818359 C25.67052044 147.39224757 27.35080384 147.39758846 29.03108215 147.40411377 C33.59920846 147.41781399 38.16713197 147.4124776 42.73526192 147.40297651 C47.51048463 147.3953939 52.28568971 147.40242163 57.06091309 147.40713501 C65.08084234 147.41259665 73.10068878 147.40539025 81.12060547 147.39111328 C90.39956407 147.37478598 99.67832493 147.3800742 108.95727873 147.3965925 C116.91657313 147.41019575 124.87580792 147.41213272 132.83511019 147.40427649 C137.59210738 147.39959357 142.34901155 147.39899206 147.10600281 147.40888596 C151.57773303 147.41753648 156.04920772 147.4115689 160.52091026 147.39420319 C162.16445681 147.39022807 163.80802478 147.39138984 165.45156288 147.39799118 C167.69053551 147.40615664 169.92868288 147.39594674 172.16760254 147.38095093 C173.42195351 147.37981985 174.67630447 147.37868877 175.96866608 147.37752342 C178.93717512 147.22176412 178.93717512 147.22176412 180.90321541 145.82254219 C182.43115772 143.28353923 182.3776165 141.41706302 182.38095093 138.45837402 C182.39364014 136.7295826 182.39364014 136.7295826 182.40658569 134.96586609 C182.400513 133.70031387 182.39444031 132.43476166 182.38818359 131.13085938 C182.39224837 129.78554355 182.39758972 128.44023107 182.40411377 127.09492493 C182.41780457 123.43997596 182.41248159 119.78528069 182.40297651 116.13032722 C182.39538899 112.3080285 182.402423 108.48575171 182.40713501 104.66345215 C182.41259522 98.24418227 182.40539403 91.82501589 182.39111328 85.40576172 C182.37478619 77.98085979 182.38007452 70.55620497 182.3965925 63.13130903 C182.41019985 56.76010759 182.41213073 50.38898061 182.40427649 44.01776934 C182.39959581 40.21091695 182.39898587 36.40418077 182.40888596 32.59733582 C182.41754251 29.01858623 182.41155813 25.44015572 182.39420319 21.86144066 C182.38833427 19.91900956 182.39726509 17.97655152 182.40658569 16.03413391 C182.39812622 14.88160629 182.38966675 13.72907867 182.38095093 12.54162598 C182.37981985 11.5380027 182.37868877 10.53437943 182.37752342 9.50034332 C182.16437915 7.01055779 182.16437915 7.01055779 180.90321541 5.17745781 C178.00449254 3.38411174 175.55581063 3.6221043 172.16760254 3.61904907 C171.46886851 3.6143691 170.77013448 3.60968913 170.05022669 3.60486734 C167.70321464 3.5928781 165.35678226 3.60238951 163.00976562 3.61181641 C161.32947956 3.60775243 159.64919616 3.60241154 157.96891785 3.59588623 C153.40079154 3.58218601 148.83286803 3.5875224 144.26473808 3.59702349 C139.48951537 3.6046061 134.71431029 3.59757837 129.93908691 3.59286499 C121.91915766 3.58740335 113.89931122 3.59460975 105.87939453 3.60888672 C96.60043593 3.62521402 87.32167507 3.6199258 78.04272127 3.6034075 C70.08342687 3.58980425 62.12419208 3.58786728 54.16488981 3.59572351 C49.40789262 3.60040643 44.65098845 3.60100794 39.89399719 3.59111404 C35.42226697 3.58246352 30.95079228 3.5884311 26.47908974 3.60579681 C24.83554319 3.60977193 23.19197522 3.60861016 21.54843712 3.60200882 C19.30946449 3.59384336 17.07131712 3.60405326 14.83239746 3.61904907 C12.95087101 3.62074569 12.95087101 3.62074569 11.03133392 3.62247658 C8.06282488 3.77823588 8.06282488 3.77823588 6.09678459 5.17745781 Z " fill="#3B93FF" transform="translate(0,0)"/>
<path d="M0 0 C62.04 0 124.08 0 188 0 C188 50.49 188 100.98 188 153 C125.96 153 63.92 153 0 153 C0 102.51 0 52.02 0 0 Z M4 4 C1.80540444 7.11396535 1.74711278 9.82416838 1.73930359 13.57249451 C1.73221878 14.70667816 1.72513397 15.84086182 1.71783447 17.00941467 C1.72031189 18.24952805 1.72278931 19.48964142 1.7253418 20.76733398 C1.72023087 22.07661865 1.71511993 23.38590332 1.70985413 24.73486328 C1.69646668 28.32371906 1.69588515 31.91246951 1.69841743 35.5013454 C1.6994873 38.4983893 1.69460335 41.49541191 1.689812 44.49245125 C1.67871772 51.56342447 1.67827897 58.63434456 1.68432617 65.70532227 C1.69036697 72.99784349 1.67805217 80.29017182 1.6567561 87.58266014 C1.63913842 93.84604924 1.633139 100.10937695 1.63639385 106.37278992 C1.63820658 110.11263369 1.63557165 113.85233986 1.62167931 117.59216118 C1.60676672 121.76265862 1.6160725 125.93276358 1.62768555 130.10327148 C1.62004181 131.34136063 1.61239807 132.57944977 1.60452271 133.85505676 C1.61153702 134.99206024 1.61855133 136.12906372 1.6257782 137.30052185 C1.62561046 138.28625403 1.62544271 139.27198622 1.62526989 140.28758907 C2.07253593 143.52503719 3.07538608 145.3760583 5 148 C8.66937628 150.44625085 10.44174596 150.25570519 14.81893921 150.26742554 C15.51626211 150.27195665 16.21358501 150.27648776 16.9320389 150.28115618 C19.27425821 150.2938407 21.61624619 150.29217723 23.95849609 150.29052734 C25.6355367 150.29651008 27.31257456 150.30331504 28.98960876 150.31088257 C33.54955344 150.32857593 38.1094231 150.33323936 42.66939878 150.33451414 C46.47412366 150.33641162 50.278831 150.34376744 54.08354914 150.35085833 C63.05928917 150.36715265 72.03498907 150.37202634 81.01074219 150.37060547 C90.27378573 150.36940382 99.53659634 150.39050792 108.79958093 150.4220928 C116.74870952 150.44823313 124.69776194 150.4589737 132.6469332 150.45769465 C137.39621959 150.45718434 142.14529906 150.46290517 146.89454269 150.48405075 C151.3613904 150.50339539 155.82783302 150.50358362 160.2946949 150.48901749 C161.93418658 150.48692356 163.57370337 150.49166495 165.21315193 150.5037384 C167.45161031 150.51915548 169.68866575 150.50990797 171.92709351 150.49447632 C173.17960089 150.49556585 174.43210827 150.49665539 175.72257042 150.49777794 C179.61417412 149.90671887 181.26257179 148.7840992 184 146 C185.02959137 142.91122588 185.13067783 140.78512541 185.14044189 137.54776001 C185.14615204 136.41495102 185.15186218 135.28214203 185.15774536 134.11500549 C185.15886322 132.87129684 185.15998108 131.6275882 185.16113281 130.34619141 C185.16609772 129.03705276 185.17106262 127.72791412 185.17617798 126.37910461 C185.18929468 122.78608643 185.19574539 119.19308693 185.20018864 115.60004854 C185.20312026 113.35519313 185.20722522 111.11034281 185.21169281 108.86548996 C185.2253652 101.84156239 185.23503338 94.81764649 185.2388947 87.79370654 C185.24337637 79.68596059 185.26093031 71.57838316 185.2898953 63.47068846 C185.3115093 57.20308226 185.32159881 50.93552349 185.32293582 44.66788042 C185.32398396 40.92465574 185.32989371 37.18158952 185.34775543 33.43840408 C185.36729218 29.26303116 185.3629483 25.08801121 185.35644531 20.91259766 C185.37026749 19.05310738 185.37026749 19.05310738 185.3843689 17.15605164 C185.37879974 16.017603 185.37323059 14.87915436 185.36749268 13.70620728 C185.36895924 12.71917627 185.3704258 11.73214527 185.3719368 10.71520424 C184.92423862 7.44692857 183.99317165 5.61792236 182 3 C178.61303029 0.5034987 175.24328585 0.7461237 171.13673401 0.73930359 C170.44672379 0.73547804 169.75671357 0.73165249 169.04579395 0.72771102 C166.73430917 0.71739444 164.42307341 0.72137055 162.11157227 0.7253418 C160.45408905 0.72099458 158.79660785 0.7158114 157.13912964 0.70985413 C152.63708563 0.69645406 148.13512553 0.69588656 143.63306546 0.69841743 C139.87551284 0.69948643 136.11797725 0.69460559 132.36042827 0.689812 C123.4963761 0.67871339 114.63236631 0.67828144 105.76831055 0.68432617 C96.62173106 0.69036762 87.47530535 0.67805143 78.3287521 0.6567561 C70.47726827 0.63914768 62.62583341 0.63313753 54.77433056 0.63639385 C50.08434459 0.63820802 45.39446831 0.63555715 40.7045002 0.62167931 C36.29432184 0.60911787 31.88438344 0.61102904 27.47420883 0.62409019 C25.85568473 0.62645919 24.23714384 0.62370974 22.61863899 0.61546707 C20.40889651 0.60502488 18.19996293 0.61307913 15.99024963 0.6257782 C14.75378976 0.62561046 13.51732988 0.62544271 12.24340153 0.62526989 C8.66083527 1.03918579 6.81919781 1.77540449 4 4 Z " fill="#FEFEFF" transform="translate(0,0)"/>
<path d="M0 0 C0.66591675 -0.00311998 1.33183351 -0.00623996 2.01792955 -0.00945449 C4.2597225 -0.01746154 6.5012468 -0.01110048 8.74304199 -0.00482178 C10.34598449 -0.00753044 11.94892574 -0.01109067 13.55186462 -0.01544189 C17.9133425 -0.02458299 22.27472608 -0.02101459 26.63620567 -0.01468372 C31.19301998 -0.00963261 35.74982602 -0.01431269 40.30664062 -0.01745605 C47.96009781 -0.0210983 55.61351644 -0.01628984 63.26696777 -0.0067749 C72.12497373 0.00411015 80.98288763 0.00058475 89.84089136 -0.01042771 C97.43581256 -0.01949324 105.03070599 -0.02078947 112.62563086 -0.01555037 C117.16629388 -0.01242662 121.70691358 -0.0120324 126.24757385 -0.01862335 C130.5156849 -0.02438554 134.78367685 -0.02042071 139.05177498 -0.00883484 C140.62156539 -0.00618219 142.19136577 -0.00696359 143.76115227 -0.01136017 C145.8974644 -0.0167934 148.03339047 -0.01000902 150.16967773 0 C151.36725456 0.00075405 152.56483139 0.0015081 153.79869843 0.002285 C156.58483887 0.25396729 156.58483887 0.25396729 158.58483887 2.25396729 C158.83652115 4.50911713 158.83652115 4.50911713 158.83880615 7.37835693 C158.84726562 9.00628426 158.84726562 9.00628426 158.855896 10.667099 C158.8498233 12.46096794 158.8498233 12.46096794 158.84362793 14.29107666 C158.84888489 16.17401176 158.84888489 16.17401176 158.85424805 18.09498596 C158.86338447 21.54327802 158.85982269 24.99145073 158.85348988 28.43974495 C158.84843634 32.04363458 158.85311952 35.64751379 158.85626221 39.25140381 C158.85990375 45.30419759 158.85509786 51.35694262 158.84558105 57.409729 C158.83469612 64.41366976 158.83822157 71.41749409 158.84923387 78.42143202 C158.85830142 84.42825809 158.85959464 90.43504905 158.85435653 96.44187975 C158.85123388 100.0323938 158.8508355 103.62285308 158.8574295 107.21336365 C158.86426414 111.21459888 158.85479893 115.21563248 158.84362793 119.21685791 C158.84767639 120.41277054 158.85172485 121.60868317 158.855896 122.84083557 C158.85025635 123.92612045 158.8446167 125.01140533 158.83880615 126.12957764 C158.83767508 127.54985134 158.83767508 127.54985134 158.83652115 128.99881744 C158.58483887 131.25396729 158.58483887 131.25396729 156.58483887 133.25396729 C153.79869843 133.50564957 153.79869843 133.50564957 150.16967773 133.50793457 C149.50376098 133.51105455 148.83784423 133.51417453 148.15174818 133.51738906 C145.90995523 133.52539611 143.66843093 133.51903505 141.42663574 133.51275635 C139.82369324 133.51546501 138.22075199 133.51902524 136.61781311 133.52337646 C132.25633523 133.53251756 127.89495165 133.52894916 123.53347206 133.52261829 C118.97665776 133.51756718 114.41985172 133.52224726 109.86303711 133.52539062 C102.20957993 133.52903287 94.5561613 133.52422441 86.90270996 133.51470947 C78.044704 133.50382442 69.1867901 133.50734982 60.32878637 133.51836228 C52.73386517 133.52742781 45.13897174 133.52872404 37.54404688 133.52348495 C33.00338386 133.52036119 28.46276415 133.51996697 23.92210388 133.52655792 C19.65399284 133.53232011 15.38600089 133.52835528 11.11790276 133.51676941 C9.54811234 133.51411676 7.97831197 133.51489816 6.40852547 133.51929474 C4.27221334 133.52472797 2.13628727 133.51794359 0 133.50793457 C-1.19757683 133.50718052 -2.39515366 133.50642647 -3.62902069 133.50564957 C-6.41516113 133.25396729 -6.41516113 133.25396729 -8.41516113 131.25396729 C-8.66684341 128.99881744 -8.66684341 128.99881744 -8.66912842 126.12957764 C-8.67476807 125.04429276 -8.68040771 123.95900787 -8.68621826 122.84083557 C-8.6821698 121.64492294 -8.67812134 120.44901031 -8.6739502 119.21685791 C-8.67745483 117.96156784 -8.68095947 116.70627777 -8.68457031 115.41294861 C-8.69370674 111.96465655 -8.69014496 108.51648384 -8.68381214 105.06818962 C-8.6787586 101.46429999 -8.68344179 97.86042078 -8.68658447 94.25653076 C-8.69022601 88.20373698 -8.68542012 82.15099195 -8.67590332 76.09820557 C-8.66501839 69.09426481 -8.66854383 62.09044048 -8.67955613 55.08650255 C-8.68862368 49.07967648 -8.6899169 43.07288552 -8.68467879 37.06605482 C-8.68155615 33.47554077 -8.68115777 29.88508149 -8.68775177 26.29457092 C-8.6945864 22.29333569 -8.6851212 18.29230209 -8.6739502 14.29107666 C-8.67799866 13.09516403 -8.68204712 11.8992514 -8.68621826 10.667099 C-8.68057861 9.58181412 -8.67493896 8.49652924 -8.66912842 7.37835693 C-8.66837437 6.4315078 -8.66762032 5.48465866 -8.66684341 4.50911713 C-8.08338239 -0.71887126 -4.33169749 0.00272744 0 0 Z M-6.41516113 3.25396729 C-6.51344913 4.90922552 -6.54148089 6.56869401 -6.54214478 8.22686768 C-6.5449646 9.3038089 -6.54778442 10.38075012 -6.5506897 11.49032593 C-6.54866547 12.68205414 -6.54664124 13.87378235 -6.54455566 15.10162354 C-6.54630798 16.3486203 -6.5480603 17.59561707 -6.54986572 18.88040161 C-6.55352403 22.31007333 -6.55265074 25.73968507 -6.54948664 29.16935349 C-6.54696274 32.75102573 -6.54930066 36.33269533 -6.5508728 39.91436768 C-6.55269441 45.93024152 -6.55028841 51.94610311 -6.54553223 57.9619751 C-6.54008962 64.92669056 -6.54185228 71.89137675 -6.54735863 78.8560915 C-6.55189001 84.82550718 -6.55254019 90.79491402 -6.54991996 96.76433086 C-6.54835732 100.33413358 -6.54816307 103.90392252 -6.55145645 107.47372437 C-6.55486938 111.45126492 -6.55014503 115.42877243 -6.54455566 119.40631104 C-6.5465799 120.59803925 -6.54860413 121.78976746 -6.5506897 123.01760864 C-6.54786987 124.09454987 -6.54505005 125.17149109 -6.54214478 126.28106689 C-6.54176775 127.2227623 -6.54139072 128.1644577 -6.54100227 129.13468933 C-6.65138914 131.23905588 -6.65138914 131.23905588 -5.41516113 132.25396729 C-3.34185716 132.35299631 -1.26512065 132.38029055 0.81054688 132.38095093 C1.79694806 132.38329091 1.79694806 132.38329091 2.80327654 132.38567817 C5.022804 132.38968994 7.24226393 132.38649786 9.46179199 132.38336182 C11.04650411 132.38471578 12.63121592 132.38649568 14.21592712 132.38867188 C18.53192091 132.3932468 22.8478909 132.39145641 27.16388512 132.38829279 C31.67045534 132.38576949 36.17702345 132.38810664 40.68359375 132.38967896 C48.2530555 132.39150074 55.8225075 132.38909411 63.39196777 132.38433838 C72.15622313 132.37889574 80.92045523 132.38065839 89.68471003 132.38616478 C97.19551369 132.39069566 104.70631034 132.39134659 112.21711493 132.38872612 C116.709124 132.3871632 121.20112212 132.38696997 125.69313049 132.3902626 C129.91522885 132.39314095 134.13729708 132.39116631 138.35939217 132.38536835 C139.91347771 132.38404055 141.46756576 132.38443519 143.02165031 132.38663101 C145.13417864 132.38934177 147.24660888 132.38596235 149.35913086 132.38095093 C150.54417961 132.3805739 151.72922836 132.38019688 152.95018768 132.37980843 C155.50942212 132.55357265 155.50942212 132.55357265 156.58483887 131.25396729 C156.68312686 129.59870905 156.71115863 127.93924056 156.71182251 126.28106689 C156.71464233 125.20412567 156.71746216 124.12718445 156.72036743 123.01760864 C156.7183432 121.82588043 156.71631897 120.63415222 156.7142334 119.40631104 C156.71598572 118.15931427 156.71773804 116.9123175 156.71954346 115.62753296 C156.72320176 112.19786124 156.72232847 108.7682495 156.71916437 105.33858109 C156.71664048 101.75690884 156.71897839 98.17523924 156.72055054 94.59356689 C156.72237215 88.57769305 156.71996615 82.56183146 156.71520996 76.54595947 C156.70976735 69.58124401 156.71153002 62.61655782 156.71703637 55.65184307 C156.72156774 49.68242739 156.72221793 43.71302055 156.7195977 37.74360371 C156.71803506 34.17380099 156.7178408 30.60401205 156.72113419 27.03421021 C156.72454712 23.05666965 156.71982276 19.07916214 156.7142334 15.10162354 C156.71726974 13.31403122 156.71726974 13.31403122 156.72036743 11.49032593 C156.71754761 10.4133847 156.71472778 9.33644348 156.71182251 8.22686768 C156.71144548 7.28517227 156.71106846 6.34347687 156.71068001 5.37324524 C156.82106688 3.26887869 156.82106688 3.26887869 155.58483887 2.25396729 C153.51153489 2.15493826 151.43479839 2.12764402 149.35913086 2.12698364 C148.70153007 2.12542365 148.04392928 2.12386366 147.3664012 2.1222564 C145.14687373 2.11824463 142.9274138 2.12143671 140.70788574 2.12457275 C139.12317362 2.12321879 137.53846182 2.12143889 135.95375061 2.1192627 C131.63775683 2.11468777 127.32178684 2.11647816 123.00579262 2.11964178 C118.4992224 2.12216508 113.99265428 2.11982793 109.48608398 2.11825562 C101.91662224 2.11643383 94.34717023 2.11884046 86.77770996 2.12359619 C78.0134546 2.12903883 69.2492225 2.12727618 60.48496771 2.12176979 C52.97416404 2.11723891 45.4633674 2.11658798 37.95256281 2.11920846 C33.46055374 2.12077137 28.96855562 2.1209646 24.47654724 2.11767197 C20.25444888 2.11479362 16.03238065 2.11676827 11.81028557 2.12256622 C10.25620003 2.12389402 8.70211198 2.12349938 7.14802742 2.12130356 C5.0354991 2.1185928 2.92306886 2.12197222 0.81054688 2.12698364 C-0.96702625 2.12754918 -0.96702625 2.12754918 -2.78050995 2.12812614 C-5.33974439 1.95436192 -5.33974439 1.95436192 -6.41516113 3.25396729 Z " fill="#3A93FF" transform="translate(18.4151611328125,8.74603271484375)"/>
<path d="M0 0 C0.99 0.33 1.98 0.66 3 1 C3.07008201 18.51543919 3.12298419 36.03083463 3.15543652 53.54638195 C3.17090522 61.67916234 3.19199477 69.81185561 3.22631836 77.94458008 C3.25622065 85.03309017 3.27557498 92.12153717 3.28226548 99.21010858 C3.28617635 102.96345188 3.29536738 106.71661468 3.31719017 110.46990013 C3.34135481 114.65994651 3.34196946 118.84967909 3.34057617 123.03979492 C3.351362 124.28416824 3.36214783 125.52854156 3.3732605 126.81062317 C3.36913651 127.95340729 3.36501251 129.09619141 3.36076355 130.27360535 C3.36352893 131.2645328 3.36629431 132.25546026 3.36914349 133.27641582 C2.93177068 136.50340394 1.90253596 138.37853657 0 141 C-2.1875 142.3125 -2.1875 142.3125 -4 143 C-4 142.34 -4 141.68 -4 141 C-59.77 141 -115.54 141 -173 141 C-173 140.67 -173 140.34 -173 140 C-116.24 139.67 -59.48 139.34 -1 139 C-0.67 93.13 -0.34 47.26 0 0 Z " fill="#4197FF" transform="translate(182,7)"/>
<path d="M0 0 C0.33 0 0.66 0 1 0 C1.33 45.21 1.66 90.42 2 137 C5.45016744 138.15005581 8.13565538 138.13932512 11.7766571 138.15821838 C12.46934073 138.16315636 13.16202435 138.16809434 13.87569839 138.17318195 C16.20187917 138.18856705 18.52803233 138.1969203 20.85424805 138.20532227 C22.51969649 138.2149 24.1851425 138.22491001 25.85058594 138.23532104 C30.37710786 138.26238757 34.90364023 138.28338768 39.43019843 138.30332303 C44.15879205 138.3251718 48.88735341 138.35256591 53.61592102 138.37937927 C62.5725016 138.42932117 71.52910008 138.47425445 80.48571569 138.51740164 C90.68150131 138.56676122 100.87725457 138.62168409 111.07300889 138.67708123 C132.04864245 138.79092425 153.0243069 138.89775825 174 139 C174 139.66 174 140.32 174 141 C151.92114766 141.09340923 129.84232786 141.1639625 107.76331806 141.20724869 C97.51182262 141.22788074 87.26044989 141.25601366 77.0090332 141.30175781 C68.07470293 141.34160585 59.14046152 141.36742814 50.20604485 141.37635398 C45.4745704 141.38157217 40.7433502 141.39385018 36.01195717 141.42292023 C31.55913794 141.4500572 27.10667786 141.45844849 22.6537838 141.45243073 C21.01911849 141.45353173 19.38444125 141.46149597 17.74984741 141.4768219 C15.5178334 141.49672382 13.28717538 141.49193964 11.05513 141.48101807 C9.18158576 141.48654882 9.18158576 141.48654882 7.27019215 141.49219131 C3.31846192 140.89742281 1.66773141 139.96173689 -1 137 C-1.59962177 134.36822891 -1.59962177 134.36822891 -1.56330872 131.31793213 C-1.56176788 130.15969437 -1.56022705 129.0014566 -1.55863953 127.80812073 C-1.53131241 126.54145065 -1.50398529 125.27478058 -1.47583008 123.96972656 C-1.46455487 122.61941634 -1.45549568 121.26908606 -1.44848633 119.91874695 C-1.42318956 116.25537303 -1.36688683 112.59305329 -1.3050406 108.93013859 C-1.24565675 105.10128439 -1.21475017 101.27220341 -1.18083191 97.4430542 C-1.11228107 90.19320871 -1.01809476 82.94393164 -0.91471261 75.69450831 C-0.79825634 67.44084146 -0.71035501 59.18694798 -0.62486041 50.9329114 C-0.44836252 33.95482165 -0.23597804 16.97736503 0 0 Z " fill="#1B7FFF" transform="translate(4,9)"/>
<path d="M0 0 C0.33 0 0.66 0 1 0 C1.33 45.21 1.66 90.42 2 137 C2.99 137.33 3.98 137.66 5 138 C5.33 138.99 5.66 139.98 6 141 C3.08482708 139.92598892 1.22189824 139.22189824 -1 137 C-1.23047829 134.61432457 -1.23047829 134.61432457 -1.20254517 131.55844116 C-1.19688034 130.40295273 -1.19121552 129.24746429 -1.18537903 128.05696106 C-1.16883774 126.78310043 -1.15229645 125.50923981 -1.13525391 124.19677734 C-1.12483167 122.84675221 -1.11529572 121.49671999 -1.10658264 120.14668274 C-1.08036377 116.47531061 -1.04169877 112.80416116 -1.00085878 109.13292646 C-0.96030147 105.29860722 -0.93110729 101.46420221 -0.90072632 97.62979126 C-0.84143693 90.36595485 -0.77187512 83.10225429 -0.69865549 75.8385464 C-0.61580747 67.5702836 -0.54436108 59.30193471 -0.47388959 51.03355861 C-0.32864554 34.02224432 -0.16902732 17.01109425 0 0 Z " fill="#2587FF" transform="translate(4,9)"/>
<path d="M0 0 C0.33 0.99 0.66 1.98 1 3 C-0.65 4.32 -2.3 5.64 -4 7 C-4.33 6.01 -4.66 5.02 -5 4 C-4.01 3.67 -3.02 3.34 -2 3 C-2 2.34 -2 1.68 -2 1 C-1.34 0.67 -0.68 0.34 0 0 Z " fill="#2B89FF" transform="translate(183,143)"/>
</svg>
