<?xml version="1.0" encoding="UTF-8"?>
<svg version="1.1" xmlns="http://www.w3.org/2000/svg" width="265" height="158">
<path d="M0 0 C87.45 0 174.9 0 265 0 C265 52.14 265 104.28 265 158 C177.55 158 90.1 158 0 158 C0 105.86 0 53.72 0 0 Z " fill="#FEFEFF" transform="translate(0,0)"/>
<path d="M0 0 C87.45 0 174.9 0 265 0 C265 52.14 265 104.28 265 158 C177.55 158 90.1 158 0 158 C0 105.86 0 53.72 0 0 Z M46.69311523 39.8269043 C45.03041013 39.93070137 45.03041013 39.93070137 43.33411503 40.03659534 C35.94377008 40.59427342 29.14900186 42.04110331 22 44 C21.67 49.94 21.34 55.88 21 62 C19.02 62.66 17.04 63.32 15 64 C14.88405967 74.45734458 14.79526099 84.91453582 14.74093914 95.37239265 C14.71486486 100.22863623 14.67950653 105.08443951 14.62280273 109.94042969 C14.56840543 114.62832836 14.53856314 119.31580402 14.52561378 124.00399399 C14.51638774 125.79098036 14.498371 127.57794403 14.47134972 129.36474991 C14.43495555 131.87143912 14.43005879 134.37638912 14.43237305 136.88330078 C14.41439667 137.61913895 14.39642029 138.35497711 14.37789917 139.1131134 C14.43488299 144.83190939 16.0854377 147.13731447 20 151 C23.32592832 152.66296416 27.05381645 152.14411643 30.71076965 152.14044189 C32.08011478 152.14489858 32.08011478 152.14489858 33.47712344 152.1494453 C36.55482645 152.15815929 39.63249069 152.15964282 42.71020508 152.16113281 C44.90925683 152.16575908 47.10830778 152.17078347 49.30735779 152.17617798 C55.29498712 152.18932243 61.28260523 152.19575091 67.27024674 152.20018864 C71.00810985 152.20311605 74.74596986 152.20722022 78.48383141 152.21169281 C90.17009125 152.22537309 101.85634464 152.23505314 113.5426119 152.2388947 C114.88818983 152.23933817 116.23376777 152.23978473 117.5793457 152.24023438 C118.58052843 152.24056652 118.58052843 152.24056652 119.60193708 152.24090537 C130.416962 152.24485333 141.23191954 152.26230661 152.04691843 152.2855939 C163.14711826 152.30930259 174.24729004 152.32151151 185.34751624 152.32293582 C191.58124815 152.32398564 197.81488507 152.32993095 204.04859352 152.34775543 C209.91148804 152.3641929 215.77421572 152.36641265 221.63712502 152.35761642 C223.79102016 152.35684373 225.94492411 152.3612192 228.09879684 152.37107468 C231.03549159 152.38372576 233.97158935 152.37795455 236.90827942 152.36749268 C237.76392339 152.37554908 238.61956736 152.38360548 239.50113994 152.39190602 C244.15285242 152.35305436 247.23988992 152.04303844 251 149 C253.48104951 145.27842573 253.26798754 142.43594364 253.22705078 138.13208008 C253.22734283 137.33184921 253.22763489 136.53161835 253.22793579 135.70713806 C253.22654205 133.06115896 253.21097884 130.41546118 253.1953125 127.76953125 C253.19158253 125.93536025 253.18873548 124.10118726 253.18673706 122.26701355 C253.17909938 117.43859357 253.15944972 112.61029384 253.1373291 107.78192139 C253.11687359 102.85528185 253.10773597 97.92862289 253.09765625 93.00195312 C253.07620397 83.33458257 253.04206637 73.66730128 253 64 C252.195625 63.87625 251.39125 63.7525 250.5625 63.625 C249.716875 63.41875 248.87125 63.2125 248 63 C246.3501993 59.70039859 246.61741639 56.00872116 246.4375 52.375 C246.39431641 51.57320312 246.35113281 50.77140625 246.30664062 49.9453125 C246.20048543 47.9637489 246.09973145 45.98189729 246 44 C241.31231015 42.24119643 236.76602924 41.44566758 231.8125 40.9375 C231.14025391 40.85951172 230.46800781 40.78152344 229.77539062 40.70117188 C211.09067295 38.68794762 192.28929018 38.83610851 173.523597 38.83274293 C171.25904495 38.83202295 168.99449864 38.82987112 166.72994804 38.82724571 C158.77430727 38.81804342 150.81868303 38.81390414 142.86303711 38.81469727 C135.53719067 38.81529591 128.21141835 38.80477278 120.88559061 38.7889536 C114.52218641 38.77572003 108.15880595 38.77051991 101.79538816 38.77115268 C98.0276743 38.77140318 94.26002644 38.76880855 90.49232674 38.75797462 C75.87145996 38.71905643 61.28936398 38.85959562 46.69311523 39.8269043 Z " fill="#FAFCFF" transform="translate(0,0)"/>
<path d="M0 0 C0.81771277 -0.00297112 1.63542554 -0.00594224 2.47791749 -0.0090034 C5.22766429 -0.01769946 7.9773676 -0.01919943 10.72712708 -0.02069092 C12.69486077 -0.02531851 14.66259357 -0.03034309 16.63032532 -0.03573608 C21.98381953 -0.04886919 27.3373012 -0.05530701 32.69080901 -0.05974674 C36.03522076 -0.06267647 39.37962906 -0.06678112 42.72403908 -0.07125092 C53.18705453 -0.08492927 63.65006215 -0.09459384 74.11308593 -0.09845281 C86.19230347 -0.10293222 98.27140777 -0.12047332 110.35059088 -0.1494534 C119.68573335 -0.17107262 129.02084397 -0.18115725 138.35601121 -0.18249393 C143.93198739 -0.18354193 149.50785717 -0.18944868 155.08380699 -0.20731354 C160.33114811 -0.22379793 165.57830291 -0.22594786 170.82566071 -0.21717453 C172.74931398 -0.21640431 174.67297728 -0.22074485 176.5966053 -0.23063278 C179.22787322 -0.24336242 181.85848229 -0.23746998 184.48974609 -0.22705078 C185.24647761 -0.23510719 186.00320913 -0.24316359 186.7828719 -0.25146413 C192.13803198 -0.20205548 196.17182467 0.91790625 201.06233215 3.14044189 C204.7283514 7.75253062 205.19328378 12.14050484 205.12483215 17.89044189 C205.11580872 18.87528564 205.10678528 19.86012939 205.0974884 20.87481689 C205.08008606 21.99630127 205.08008606 21.99630127 205.06233215 23.14044189 C204.51633362 23.0547998 203.97033508 22.96915771 203.40779114 22.88092041 C200.77360251 22.47551322 198.13686243 22.08941872 195.49983215 21.70294189 C194.64325012 21.56823486 193.78666809 21.43352783 192.90412903 21.29473877 C172.43712283 18.35036244 151.44365903 18.97700459 130.81907225 18.97318482 C128.61546432 18.97246239 126.41186222 18.97030632 124.20825577 18.96768761 C116.45892708 18.95850378 108.70961532 18.95434397 100.96028137 18.95513916 C93.83545574 18.95573844 86.71070615 18.9451977 79.58589971 18.9293955 C73.38460588 18.91615151 67.1833364 18.91096217 60.9820286 18.91159457 C57.31550494 18.91184462 53.64904917 18.90927641 49.98254013 18.89841652 C35.39399976 18.85830782 20.85830986 19.04956304 6.29914856 20.02984619 C5.14043936 20.10742314 3.98173016 20.1850001 2.78790855 20.26492786 C-4.53987622 20.81478886 -11.71200649 21.80730251 -18.93766785 23.14044189 C-19.24776881 16.62832164 -18.93064276 11.04358213 -15.93766785 5.14044189 C-11.0245361 0.22731015 -6.64327896 -0.00749628 0 0 Z " fill="#FDFDFF" transform="translate(40.93766784667969,18.85955810546875)"/>
<path d="M0 0 C87.45 0 174.9 0 265 0 C265 52.14 265 104.28 265 158 C177.55 158 90.1 158 0 158 C0 105.86 0 53.72 0 0 Z M34.71226501 1.90289307 C34.01940039 1.98193556 33.32653577 2.06097805 32.61267525 2.14241576 C24.18100571 3.21546126 16.91845875 5.79970988 11 12 C3.63884794 23.3342242 3.92067901 36.9798831 3.8125 50 C3.79944824 50.93287842 3.78639648 51.86575684 3.77294922 52.8269043 C3.77182129 53.70902588 3.77069336 54.59114746 3.76953125 55.5 C3.76542236 56.2940625 3.76131348 57.088125 3.75708008 57.90625 C3.87438995 60.30462252 3.87438995 60.30462252 6 63 C8.56282742 63.72965366 8.56282742 63.72965366 11 64 C11.00586624 64.98892242 11.01173248 65.97784485 11.01777649 66.99673462 C11.0750367 76.32505992 11.14781561 85.65315285 11.23571491 94.98124123 C11.28040613 99.77670225 11.31966505 104.57207857 11.34643555 109.36767578 C11.37248092 113.99735197 11.41289215 118.62670196 11.46318626 123.25617599 C11.47984662 125.02072461 11.49136607 126.78532963 11.49761391 128.54994583 C11.50726412 131.02534273 11.53533367 133.49990667 11.56762695 135.97509766 C11.56619186 136.70158508 11.56475677 137.42807251 11.5632782 138.17657471 C11.64907622 142.83923209 12.55029818 146.03553381 15 150 C20.30631087 154.788622 23.74087994 155.14866088 30.70404053 155.14717102 C31.61623171 155.15084771 32.52842289 155.1545244 33.46825624 155.1583125 C36.54362173 155.16937951 39.61895348 155.17319828 42.69433594 155.17700195 C44.89176542 155.18326431 47.08919384 155.1899109 49.28662109 155.19691467 C55.27018208 155.21434526 61.25373507 155.22488197 67.23731518 155.2331202 C70.97317584 155.23826582 74.70903399 155.24434174 78.44489288 155.25063133 C89.45588317 155.26859503 100.46686885 155.28297344 111.47787119 155.29080774 C113.49338549 155.29224624 115.50889978 155.29369761 117.52441406 155.29516602 C118.19160691 155.29564976 118.85879975 155.2961335 119.54621056 155.2966319 C130.35411526 155.30493205 141.16190927 155.33026818 151.96976563 155.36274669 C163.06431816 155.39581509 174.1588246 155.41349585 185.25342774 155.41702431 C191.48331348 155.41937834 197.71302432 155.42838473 203.94286346 155.45348549 C209.80333363 155.47671597 215.66351312 155.48101957 221.52401733 155.47072411 C223.67588516 155.47022742 225.82776705 155.47658681 227.97959137 155.49028015 C230.91608648 155.50792226 233.8515298 155.50093049 236.7880249 155.48774719 C237.64075603 155.49871644 238.49348716 155.50968568 239.37205863 155.52098733 C244.72541842 155.46291276 247.74679125 154.54186834 252 151 C255.90035316 146.44130309 256.56791463 142.70677596 256.45410156 136.88330078 C256.45468567 136.09238541 256.45526978 135.30147003 256.45587158 134.48658752 C256.4530991 131.88903935 256.42204806 129.29265859 256.390625 126.6953125 C256.3831596 124.88785428 256.37746808 123.08038793 256.37347412 121.2729187 C256.35824125 116.5282129 256.31897984 111.7840011 256.2746582 107.03948975 C256.23365472 102.19306113 256.21545228 97.34655228 256.1953125 92.5 C256.15248318 82.9997836 256.08426042 73.49993297 256 64 C257.7015625 63.566875 257.7015625 63.566875 259.4375 63.125 C260.613125 62.75375 261.78875 62.3825 263 62 C268.07389862 51.85220277 264.01714436 30.59216645 261.22265625 20.07421875 C258.8233436 13.12342031 255.23907898 9.36636202 248.88671875 5.8203125 C236.10964895 -0.06358183 220.62513367 0.70483903 206.83813477 0.74121094 C205.08012752 0.73849281 203.32212143 0.73492731 201.56411743 0.73059082 C196.83883854 0.72156152 192.1136481 0.72497173 187.38836789 0.73134899 C182.41157392 0.73645928 177.43478686 0.73170363 172.45799255 0.72857666 C164.10373595 0.7249512 155.74951486 0.72969831 147.39526367 0.73925781 C137.77836876 0.75013602 128.16155872 0.74661561 118.54466587 0.735605 C110.24435125 0.7264872 101.94406196 0.7252688 93.64374393 0.73048234 C88.70542478 0.73357792 83.76714531 0.73407864 78.82882881 0.72740936 C74.18211201 0.72157083 69.53550308 0.72574991 64.88879776 0.73719788 C63.19790385 0.73981022 61.50700064 0.73913923 59.81611061 0.73467255 C51.39055359 0.71449213 43.0892624 0.94202136 34.71226501 1.90289307 Z " fill="#FEFEFF" transform="translate(0,0)"/>
<path d="M0 0 C1.75903901 -0.00299808 3.51807736 -0.00640209 5.27711487 -0.01017761 C10.02319853 -0.01895542 14.76926412 -0.02135308 19.51535511 -0.0219934 C22.48917894 -0.0227074 25.46299828 -0.02484832 28.43682098 -0.02749062 C38.83597604 -0.03672323 49.23511833 -0.04082809 59.63427734 -0.04003906 C69.28859353 -0.03943873 78.94285377 -0.04998723 88.59715581 -0.06578273 C96.91944998 -0.07890794 105.24172598 -0.08422088 113.56403041 -0.08358365 C118.51970948 -0.08333014 123.47533874 -0.08609952 128.43100739 -0.0967617 C133.0965371 -0.10652708 137.76197023 -0.10646478 142.42750359 -0.09924507 C144.12688019 -0.09820966 145.82626309 -0.10049902 147.52562904 -0.10660553 C182.23660877 -0.22312788 182.23660877 -0.22312788 193.24121094 8.74682617 C203.03462435 19.23463809 202.4439215 35.42913514 202.52636719 48.89526367 C202.54026489 50.34280029 202.54026489 50.34280029 202.55444336 51.81958008 C202.55033447 52.72627441 202.54622559 53.63296875 202.54199219 54.56713867 C202.53973633 55.37763672 202.53748047 56.18813477 202.53515625 57.02319336 C202.27636719 59.14526367 202.27636719 59.14526367 200.27636719 62.14526367 C197.15136719 62.83276367 197.15136719 62.83276367 194.27636719 63.14526367 C194.28524963 64.14671417 194.29413208 65.14816467 194.30328369 66.17996216 C194.38443236 75.62579394 194.44436273 85.07155483 194.48361588 94.51765633 C194.50447494 99.37381666 194.53276189 104.2296952 194.578125 109.08569336 C194.6216427 113.77357624 194.64551694 118.46118835 194.65587616 123.14925766 C194.6632569 124.93621965 194.6776699 126.72316711 194.69928741 128.51001358 C194.72840063 131.01652086 194.73231996 133.52191482 194.73046875 136.02856445 C194.75204041 137.1323217 194.75204041 137.1323217 194.77404785 138.25837708 C194.7331817 143.38494565 193.59725003 146.26384635 190.27636719 150.14526367 C185.18504477 154.37980339 181.42392841 154.7196748 175.09130859 154.65319824 C174.17569971 154.6594382 173.26009083 154.66567817 172.31673622 154.67210722 C169.25353754 154.68804184 166.19113406 154.67543092 163.12792969 154.6628418 C160.92990658 154.66826269 158.7318871 154.67538516 156.53387451 154.68408203 C150.56698453 154.70232201 144.6003711 154.6952449 138.63347626 154.68256569 C132.3902461 154.67244162 126.14703968 154.68182973 119.90380859 154.68811035 C108.74758157 154.6958547 97.5914561 154.68342075 86.43525338 154.663073 C76.32428627 154.64520245 66.21350286 154.64830671 56.10253906 154.66674805 C44.35508894 154.6881642 32.6077283 154.69611682 20.8602581 154.68429899 C14.64387476 154.67806149 8.42761791 154.67723561 2.21124268 154.69044495 C-3.63290763 154.70199579 -9.47671087 154.6939913 -15.32082367 154.67086792 C-17.46622898 154.66557679 -19.61166347 154.66710146 -21.75705719 154.67591858 C-24.68462447 154.68684139 -27.611078 154.67314941 -30.53857422 154.65319824 C-31.38857687 154.66212113 -32.23857952 154.67104402 -33.11433983 154.68023729 C-38.4570285 154.60956178 -41.46606826 153.66162413 -45.72363281 150.14526367 C-49.74233565 145.572257 -49.88317759 141.32502203 -49.92895508 135.4609375 C-49.93885468 134.68021378 -49.94875427 133.89949005 -49.95895386 133.09510803 C-49.99054458 130.51420119 -50.01531669 127.93327594 -50.04003906 125.35229492 C-50.06061069 123.56295798 -50.08160721 121.77362588 -50.10301208 119.98429871 C-50.15821124 115.27434201 -50.20763004 110.56434162 -50.25585938 105.85430908 C-50.30609012 101.04825958 -50.36176798 96.24227356 -50.41699219 91.4362793 C-50.52454739 82.00599498 -50.62599825 72.57565555 -50.72363281 63.14526367 C-51.69300781 62.85651367 -52.66238281 62.56776367 -53.66113281 62.27026367 C-56.72363281 61.14526367 -56.72363281 61.14526367 -57.72363281 59.14526367 C-58.9603737 42.82651968 -58.63433238 24.66309628 -50.03613281 10.33276367 C-36.91055907 -2.0833196 -16.74858933 -0.00574202 0 0 Z M-45.91113281 12.45776367 C-55.15551495 26.16495097 -52.95658445 44.38220264 -52.72363281 60.14526367 C-49.09363281 60.47526367 -45.46363281 60.80526367 -41.72363281 61.14526367 C-41.63275391 58.61225586 -41.63275391 58.61225586 -41.54003906 56.02807617 C-41.45556618 53.7754659 -41.37092163 51.52286207 -41.28613281 49.27026367 C-41.2271582 47.60737305 -41.2271582 47.60737305 -41.16699219 45.91088867 C-40.37366788 25.16240677 -40.37366788 25.16240677 -35.72363281 20.14526367 C-30.3887957 17.34432315 -26.18168452 16.71214743 -20.21556091 16.76431274 C-18.96949785 16.75729279 -18.96949785 16.75729279 -17.6982618 16.75013101 C-14.92847783 16.7382123 -12.1591915 16.74762592 -9.3894043 16.75708008 C-7.3981294 16.75301302 -5.40685676 16.74767039 -3.41558838 16.7411499 C1.98304454 16.72748739 7.38150523 16.73277038 12.78014112 16.74228716 C18.43212167 16.74988817 24.08408759 16.74283701 29.73606873 16.73812866 C39.22600957 16.73267286 48.71588034 16.73985864 58.20581055 16.75415039 C69.17639737 16.77048123 80.14681697 16.76518449 91.11739975 16.74867117 C100.53922728 16.73505697 109.96100448 16.7331362 119.38283867 16.74098718 C125.00897745 16.74566343 130.63503762 16.74628971 136.26117134 16.73637772 C141.54962112 16.72771117 146.83785525 16.7337244 152.12628174 16.75106049 C154.06689534 16.75502677 156.00752709 16.75388887 157.94813347 16.74727249 C160.59742687 16.73907271 163.24602952 16.74935956 165.89527893 16.76431274 C166.66288955 16.75762058 167.43050017 16.75092841 168.22137171 16.74403346 C172.97842238 16.79610076 176.25318395 17.59125207 180.27636719 20.14526367 C184.46041438 25.57321678 185.39737546 29.43116031 185.55761719 36.18432617 C185.57602661 36.86578705 185.59443604 37.54724792 185.61340332 38.24935913 C185.69203405 41.16274453 185.7600345 44.07635348 185.82861328 46.98999023 C185.88021242 49.11738968 185.93748865 51.24458292 185.99511719 53.37182617 C186.02541016 54.64622559 186.05570313 55.920625 186.08691406 57.23364258 C185.94780802 60.03660509 185.94780802 60.03660509 187.27636719 61.14526367 C188.96778374 61.05563305 190.65596321 60.89948691 192.33886719 60.70776367 C193.71751953 60.55500977 193.71751953 60.55500977 195.12402344 60.39916992 C195.83429688 60.31538086 196.54457031 60.2315918 197.27636719 60.14526367 C199.02161311 33.21883988 199.02161311 33.21883988 188.36230469 9.83666992 C180.33248583 3.32559957 169.98049731 2.99288058 160.07478333 3.00482178 C159.28899468 3.00185066 158.50320603 2.99887953 157.6936056 2.99581838 C155.08161468 2.98720241 152.46966998 2.9856292 149.85766602 2.98413086 C147.9761241 2.97949767 146.09458312 2.97447234 144.21304321 2.96908569 C139.11569954 2.95600845 134.01836902 2.94952596 128.92101121 2.94507504 C125.73147994 2.9421369 122.5419522 2.93803073 119.35242271 2.93357086 C109.35874379 2.9199086 99.36507301 2.91023558 89.3713854 2.90636897 C77.86165075 2.90189042 66.35203499 2.88434652 54.84233648 2.85536838 C45.92739364 2.83370731 37.01248414 2.82366234 28.09751529 2.82232785 C22.78134657 2.82128305 17.4652898 2.81544452 12.14914894 2.79750824 C7.14467301 2.78095075 2.14039227 2.77890912 -2.86410141 2.78764725 C-4.69213066 2.78841351 -6.52017075 2.78412966 -8.34817314 2.774189 C-28.88782367 2.41614061 -28.88782367 2.41614061 -45.91113281 12.45776367 Z M-34.72363281 21.14526367 C-39.9346838 27.62386761 -39.85461821 33.21014854 -39.72363281 41.14526367 C-39.01095057 41.01377332 -38.29826832 40.88228296 -37.56398964 40.74680805 C-29.88271693 39.39022775 -22.26694222 38.5555566 -14.48681641 38.03466797 C-13.23491705 37.95037631 -11.98301769 37.86608465 -10.69318199 37.7792387 C3.30634425 36.91415266 17.30429534 36.86801437 31.32558012 36.90954423 C35.04359916 36.91857506 38.76161699 36.91656263 42.47964478 36.91618347 C48.70666661 36.917109 54.9336386 36.92564216 61.16064453 36.93945312 C68.28910388 36.95520822 75.41750911 36.96044905 82.54598463 36.95971757 C90.24941653 36.95903476 97.95282852 36.9660096 105.65625429 36.97516418 C107.82881405 36.97726257 110.00137045 36.97800072 112.17393112 36.97840309 C157.46183267 36.99468977 157.46183267 36.99468977 174.71386719 39.70776367 C175.65939453 39.84633789 176.60492188 39.98491211 177.57910156 40.12768555 C179.81330142 40.45657791 182.04538702 40.79532536 184.27636719 41.14526367 C184.31200531 39.39541293 184.33735272 37.64535074 184.35839844 35.89526367 C184.37362549 34.92073242 184.38885254 33.94620117 184.40454102 32.94213867 C184.19279934 28.32173374 182.68402289 25.08916916 179.96386719 21.33276367 C175.12315988 17.92634001 169.67080776 17.85620991 163.96447754 17.88456726 C163.14279036 17.88074171 162.32110318 17.87691617 161.47451639 17.87297469 C158.72936457 17.86268036 155.98442329 17.86663003 153.23925781 17.87060547 C151.26783556 17.86625708 149.296415 17.8610735 147.32499695 17.8551178 C141.97592736 17.84173165 136.62692845 17.84114861 131.27784538 17.8436811 C126.81196922 17.84475086 122.34610735 17.83986739 117.88023424 17.83507568 C107.34576377 17.82398225 96.81132896 17.82354245 86.27685547 17.82958984 C75.4079748 17.8356332 64.53922346 17.82330902 53.67036486 17.80201977 C44.33773488 17.78441155 35.00514611 17.77840111 25.67250013 17.78165752 C20.09887646 17.78347144 14.52534509 17.7808231 8.95173645 17.76694298 C3.71173698 17.75438165 -1.52806055 17.75629273 -6.76805687 17.76935387 C-8.69093582 17.77172272 -10.61382892 17.76897392 -12.53669167 17.76073074 C-15.16194394 17.75028796 -17.78651545 17.75834395 -20.41174316 17.77104187 C-21.55250942 17.75998044 -21.55250942 17.75998044 -22.71632147 17.74869555 C-27.45794176 17.7969314 -30.7088052 18.61206105 -34.72363281 21.14526367 Z M-15.03051758 38.97216797 C-16.69322268 39.07596504 -16.69322268 39.07596504 -18.38951778 39.18185902 C-25.77986273 39.73953709 -32.57463096 41.18636698 -39.72363281 43.14526367 C-40.05363281 49.08526367 -40.38363281 55.02526367 -40.72363281 61.14526367 C-42.70363281 61.80526367 -44.68363281 62.46526367 -46.72363281 63.14526367 C-46.83957314 73.60260825 -46.92837182 84.05979949 -46.98269367 94.51765633 C-47.00876795 99.3738999 -47.04412629 104.22970318 -47.10083008 109.08569336 C-47.15522738 113.77359203 -47.18506967 118.46106769 -47.19801903 123.14925766 C-47.20724508 124.93624403 -47.22526181 126.7232077 -47.2522831 128.51001358 C-47.28867726 131.01670279 -47.29357402 133.52165279 -47.29125977 136.02856445 C-47.30923615 136.76440262 -47.32721252 137.50024078 -47.34573364 138.25837708 C-47.28874982 143.97717306 -45.63819511 146.28257814 -41.72363281 150.14526367 C-38.3977045 151.80822783 -34.66981636 151.2893801 -31.01286316 151.28570557 C-29.64351804 151.29016225 -29.64351804 151.29016225 -28.24650937 151.29470897 C-25.16880636 151.30342296 -22.09114213 151.30490649 -19.01342773 151.30639648 C-16.81437598 151.31102275 -14.61532503 151.31604714 -12.41627502 151.32144165 C-6.42864569 151.3345861 -0.44102758 151.34101458 5.54661393 151.34545231 C9.28447703 151.34837973 13.02233704 151.3524839 16.76019859 151.35695648 C28.44645844 151.37063677 40.13271183 151.38031681 51.81897908 151.38415837 C53.16455702 151.38460184 54.51013496 151.3850484 55.85571289 151.38549805 C56.85689562 151.38583019 56.85689562 151.38583019 57.87830427 151.38616905 C68.69332919 151.390117 79.50828673 151.40757028 90.32328562 151.43085757 C101.42348545 151.45456626 112.52365723 151.46677518 123.62388343 151.46819949 C129.85761534 151.46924931 136.09125226 151.47519462 142.32496071 151.4930191 C148.18785522 151.50945657 154.05058291 151.51167632 159.9134922 151.5028801 C162.06738735 151.5021074 164.2212913 151.50648287 166.37516403 151.51633835 C169.31185878 151.52898943 172.24795654 151.52321822 175.18464661 151.51275635 C176.04029058 151.52081275 176.89593455 151.52886916 177.77750713 151.53716969 C182.42921961 151.49831803 185.51625711 151.18830211 189.27636719 148.14526367 C191.7574167 144.4236894 191.54435473 141.58120731 191.50341797 137.27734375 C191.50371002 136.47711288 191.50400208 135.67688202 191.50430298 134.85240173 C191.50290924 132.20642263 191.48734603 129.56072485 191.47167969 126.91479492 C191.46794971 125.08062392 191.46510267 123.24645093 191.46310425 121.41227722 C191.45546657 116.58385724 191.4358169 111.75555751 191.41369629 106.92718506 C191.39324078 102.00054552 191.38410316 97.07388656 191.37402344 92.1472168 C191.35257116 82.47984625 191.31843356 72.81256496 191.27636719 63.14526367 C190.47199219 63.02151367 189.66761719 62.89776367 188.83886719 62.77026367 C187.99324219 62.56401367 187.14761719 62.35776367 186.27636719 62.14526367 C184.62656648 58.84566227 184.89378358 55.15398483 184.71386719 51.52026367 C184.67068359 50.7184668 184.6275 49.91666992 184.58300781 49.09057617 C184.47685262 47.10901257 184.37609864 45.12716097 184.27636719 43.14526367 C179.58867733 41.3864601 175.04239642 40.59093126 170.08886719 40.08276367 C169.41662109 40.00477539 168.744375 39.92678711 168.05175781 39.84643555 C149.36704014 37.83321129 130.56565737 37.98137219 111.79996419 37.9780066 C109.53541214 37.97728662 107.27086583 37.97513479 105.00631523 37.97250938 C97.05067445 37.96330709 89.09505022 37.95916781 81.1394043 37.95996094 C73.81355785 37.96055958 66.48778554 37.95003645 59.1619578 37.93421727 C52.7985536 37.9209837 46.43517314 37.91578358 40.07175535 37.91641635 C36.30404148 37.91666685 32.53639363 37.91407222 28.76869392 37.9032383 C14.14782714 37.8643201 -0.43426883 38.00485929 -15.03051758 38.97216797 Z " fill="#348DFF" transform="translate(61.7236328125,0.854736328125)"/>
<path d="M0 0 C0.78185592 -0.00256327 1.56371184 -0.00512655 2.36926037 -0.0077675 C4.97344327 -0.01268536 7.57703866 0.00375412 10.1811676 0.02018738 C12.05409735 0.02103408 13.9270281 0.02055766 15.79995728 0.01885986 C20.87384873 0.01800019 25.94752681 0.03562162 31.02136874 0.05658174 C36.3278029 0.07535302 41.63424211 0.07709934 46.94070435 0.08065796 C56.98448665 0.08997708 67.02817084 0.11458912 77.07190996 0.14470643 C88.50835841 0.17825452 99.94481158 0.19473749 111.38129699 0.20979273 C134.90261357 0.24113875 158.42384309 0.29389673 181.94508362 0.36076355 C181.94508362 0.69076355 181.94508362 1.02076355 181.94508362 1.36076355 C181.03878078 1.36499549 180.13247795 1.36922743 179.1987114 1.37358761 C157.11307114 1.47703939 135.0274618 1.58569841 112.94187546 1.70010281 C102.26131498 1.75530398 91.58075116 1.8087639 80.90016174 1.858078 C71.58742521 1.90108097 62.27471196 1.94739855 52.96201158 1.9976421 C48.03425488 2.02411384 43.10650241 2.0489626 38.17871857 2.06983757 C33.53306214 2.08956988 28.88744951 2.11376054 24.24183273 2.14125443 C22.54402088 2.15053779 20.84619949 2.15824341 19.14837265 2.16418266 C1.73756825 1.14901004 1.73756825 1.14901004 -14.05491638 6.36076355 C-16.97021313 10.33682422 -17.65290762 13.82115293 -18.24241638 18.67326355 C-18.48024841 20.55465027 -18.48024841 20.55465027 -18.72288513 22.4740448 C-18.8872406 23.90297058 -18.8872406 23.90297058 -19.05491638 25.36076355 C-18.34545459 25.15783628 -17.63599279 24.95490902 -16.90503216 24.74583244 C-9.10302676 22.63893431 -1.59538393 21.6605962 6.45948792 21.18547058 C7.71839938 21.10561983 8.97731085 21.02576908 10.27437115 20.94349861 C23.42312552 20.17177288 36.5478148 20.10624443 49.71461487 20.16545105 C52.22907395 20.16919715 54.74353452 20.17203652 57.25799561 20.17402649 C63.76618224 20.18153759 70.27427465 20.20107279 76.78242493 20.22343445 C83.46749168 20.24416843 90.15257185 20.25308611 96.83766174 20.2631073 C109.87350844 20.28433513 122.90929094 20.31790891 135.94508362 20.36076355 C135.94508362 20.69076355 135.94508362 21.02076355 135.94508362 21.36076355 C135.37821461 21.36922743 134.8113456 21.37769131 134.22729874 21.38641167 C120.28918774 21.59506796 106.35123743 21.81260198 92.41341019 22.03944206 C85.67255973 22.14894676 78.93168948 22.25549062 72.19068909 22.35539246 C65.661196 22.45226862 59.13186732 22.55696549 52.60257721 22.66664505 C50.13611301 22.70678689 47.66960447 22.7443097 45.20305634 22.77891159 C32.09425513 22.96464126 19.03285819 23.37246866 5.95191956 24.27531433 C4.26091818 24.38941052 4.26091818 24.38941052 2.53575516 24.50581169 C-4.74767232 25.0494266 -11.8728057 26.03767265 -19.05491638 27.36076355 C-19.03171326 28.63693542 -19.00851013 29.9131073 -18.98460388 31.22795105 C-18.9658481 32.89721605 -18.94764769 34.56648735 -18.92991638 36.23576355 C-18.91315857 37.07752136 -18.89640076 37.91927917 -18.87913513 38.7865448 C-18.87268982 39.59220886 -18.86624451 40.39787292 -18.85960388 41.22795105 C-18.84913025 41.97157898 -18.83865662 42.71520691 -18.8278656 43.48136902 C-19.05491638 45.36076355 -19.05491638 45.36076355 -21.05491638 47.36076355 C-23.67991638 47.48576355 -23.67991638 47.48576355 -26.05491638 47.36076355 C-26.01686828 57.83571155 -25.95751937 68.31030189 -25.87101364 78.78496838 C-25.83151331 83.64887016 -25.79933738 88.51259021 -25.78392029 93.37663269 C-25.76877052 98.07120734 -25.73435495 102.76528245 -25.68660736 107.45963478 C-25.6717762 109.25012685 -25.66387437 111.04069022 -25.66303253 112.83124352 C-25.66066629 115.34056661 -25.63361592 117.84850533 -25.60081482 120.35758972 C-25.60584518 121.09702316 -25.61087555 121.8364566 -25.61605835 122.59829712 C-25.51797744 127.45143867 -24.50925417 129.95364221 -21.05491638 133.36076355 C-17.73045762 135.02299293 -14.00433368 134.51483294 -10.34846497 134.51898193 C-9.43612394 134.52391991 -8.52378291 134.52885789 -7.58379519 134.5339455 C-4.50825286 134.54937735 -1.4327315 134.55769647 1.64283752 134.56608582 C3.84015082 134.57565987 6.03746226 134.58566967 8.23477173 134.59608459 C14.21585565 134.62319091 20.1969475 134.64416941 26.1780591 134.66408658 C32.42279295 134.6859109 38.66750218 134.71331693 44.91221619 134.74014282 C55.39874686 134.78443353 65.88528699 134.82526062 76.37184143 134.8634491 C87.17426031 134.90279729 97.97666794 134.94422189 108.77906799 134.9884491 C109.77742984 134.9925355 109.77742984 134.9925355 110.79596062 134.99670447 C114.13486738 135.01038383 117.47377396 135.02410636 120.81268048 135.03784478 C148.5234585 135.15173871 176.23426019 135.25856156 203.94508362 135.36076355 C204.27508362 136.35076355 204.60508362 137.34076355 204.94508362 138.36076355 C176.51097121 138.4520169 148.07687722 138.52280375 119.64264705 138.56502487 C116.28561395 138.57002769 112.92858113 138.57520498 109.57154846 138.58049011 C108.90322462 138.58153935 108.23490077 138.5825886 107.54632469 138.58366963 C96.72536764 138.60107416 85.90449561 138.63261208 75.083589 138.66937473 C63.98006707 138.70678288 52.87657982 138.72869973 41.77299654 138.73711753 C35.53636307 138.74233694 29.29992242 138.75462309 23.06335068 138.78368378 C17.19471288 138.81080875 11.32634757 138.81921433 5.45765305 138.81319427 C3.30255656 138.81429581 1.14745108 138.82226684 -1.00759125 138.83758545 C-3.94855757 138.85746731 -6.88849319 138.85270895 -9.82948303 138.84178162 C-10.6835784 138.85343298 -11.53767377 138.86508435 -12.41765082 138.87708879 C-17.77619712 138.82321975 -20.78629572 137.89259325 -25.05491638 134.36076355 C-29.07361922 129.78775688 -29.21446116 125.54052191 -29.26023865 119.67643738 C-29.27013824 118.89571365 -29.28003784 118.11498993 -29.29023743 117.31060791 C-29.32182815 114.72970107 -29.34660026 112.14877582 -29.37132263 109.5677948 C-29.39189425 107.77845786 -29.41289078 105.98912575 -29.43429565 104.19979858 C-29.48949481 99.48984189 -29.53891361 94.77984149 -29.58714294 90.06980896 C-29.63737369 85.26375946 -29.69305155 80.45777343 -29.74827576 75.65177917 C-29.85583096 66.22149486 -29.95728182 56.79115543 -30.05491638 47.36076355 C-31.02429138 47.07201355 -31.99366638 46.78326355 -32.99241638 46.48576355 C-36.05491638 45.36076355 -36.05491638 45.36076355 -37.05491638 43.36076355 C-37.13892167 41.76628891 -37.16219105 40.1683581 -37.15257263 38.57170105 C-37.14934998 37.63068542 -37.14612732 36.6896698 -37.14280701 35.72013855 C-37.1344281 34.7352948 -37.12604919 33.75045105 -37.11741638 32.73576355 C-37.11290466 31.74318542 -37.10839294 30.7506073 -37.10374451 29.72795105 C-37.09193783 27.27216195 -37.07547038 24.81649251 -37.05491638 22.36076355 C-36.72491638 22.36076355 -36.39491638 22.36076355 -36.05491638 22.36076355 C-36.05491638 28.96076355 -36.05491638 35.56076355 -36.05491638 42.36076355 C-35.39491638 42.36076355 -34.73491638 42.36076355 -34.05491638 42.36076355 C-34.06539001 41.56380066 -34.07586365 40.76683777 -34.08665466 39.94572449 C-34.1282341 36.33410293 -34.15424899 32.72253176 -34.17991638 29.11076355 C-34.19667419 27.85650574 -34.21343201 26.60224792 -34.23069763 25.3099823 C-34.23714294 24.10470886 -34.24358826 22.89943542 -34.25022888 21.65763855 C-34.26070251 20.54743347 -34.27117615 19.43722839 -34.28196716 18.29338074 C-34.05959972 15.42125413 -33.54773214 13.7885262 -32.05491638 11.36076355 C-31.02056555 18.64719055 -31.10756196 25.58448783 -31.49241638 32.92326355 C-31.54462341 34.02734558 -31.59683044 35.13142761 -31.65061951 36.26896667 C-31.77907539 38.96654016 -31.91611278 41.66370271 -32.05491638 44.36076355 C-28.42491638 44.69076355 -24.79491638 45.02076355 -21.05491638 45.36076355 C-21.06651794 43.67209167 -21.07811951 41.9834198 -21.09007263 40.24357605 C-21.09945848 37.990973 -21.10855782 35.73836874 -21.11741638 33.48576355 C-21.12579529 32.3771698 -21.13417419 31.26857605 -21.14280701 30.12638855 C-21.19902788 11.01129244 -21.19902788 11.01129244 -16.79710388 4.8334198 C-11.80516026 0.61377239 -6.32183374 -0.07684552 0 0 Z " fill="#2C88FF" transform="translate(41.05491638183594,16.639236450195313)"/>
<path d="M0 0 C5.06720665 4.01881907 6.4816357 9.602889 7.42651367 15.79516602 C7.73304185 18.71592403 7.97619896 21.63336361 8.1875 24.5625 C8.3102832 26.07553711 8.3102832 26.07553711 8.43554688 27.61914062 C8.63370569 30.07864126 8.81827506 32.53923054 9 35 C9.33 32.03 9.66 29.06 10 26 C10.33 26 10.66 26 11 26 C11.05800828 29.60409919 11.09359869 33.20807851 11.125 36.8125 C11.14175781 37.83666016 11.15851563 38.86082031 11.17578125 39.91601562 C11.18222656 40.89892578 11.18867188 41.88183594 11.1953125 42.89453125 C11.20578613 43.80050049 11.21625977 44.70646973 11.22705078 45.63989258 C11 48 11 48 9 51 C5.875 51.6875 5.875 51.6875 3 52 C3.00888245 53.0014505 3.01776489 54.002901 3.0269165 55.03469849 C3.10806517 64.48053027 3.16799554 73.92629116 3.20724869 83.37239265 C3.22810775 88.22855299 3.2563947 93.08443152 3.30175781 97.94042969 C3.34527551 102.62831256 3.36914976 107.31592468 3.37950897 112.00399399 C3.38688971 113.79095598 3.40130271 115.57790344 3.42292023 117.36474991 C3.45203345 119.87125718 3.45595277 122.37665115 3.45410156 124.88330078 C3.46848267 125.61913895 3.48286377 126.35497711 3.49768066 127.1131134 C3.45699879 132.21656503 2.16952082 135.04864067 -1 139 C-3 140.9375 -3 140.9375 -5 142 C-7.25 141.6875 -7.25 141.6875 -9 141 C-8.05125 140.401875 -7.1025 139.80375 -6.125 139.1875 C-2.86035803 137.18437474 -2.86035803 137.18437474 -1 134 C-0.78709861 131.34416896 -0.68874628 128.78963741 -0.68115234 126.13208008 C-0.67110672 125.33184921 -0.6610611 124.53161835 -0.65071106 123.70713806 C-0.61981264 121.06127645 -0.60282553 118.41551633 -0.5859375 115.76953125 C-0.5672312 113.93534976 -0.54765819 112.10117692 -0.5272522 110.26701355 C-0.47586814 105.43870133 -0.43627603 100.61036119 -0.39910889 95.78192139 C-0.35910854 90.85519468 -0.30799811 85.92858475 -0.2578125 81.00195312 C-0.16097895 71.33471737 -0.07659796 61.66741578 0 52 C-1.175625 52.0928125 -1.175625 52.0928125 -2.375 52.1875 C-3.24125 52.125625 -4.1075 52.06375 -5 52 C-7.03120707 48.95318939 -7.24659875 48.39881676 -7.1953125 44.98828125 C-7.18564453 43.85229492 -7.18564453 43.85229492 -7.17578125 42.69335938 C-7.15064453 41.51483398 -7.15064453 41.51483398 -7.125 40.3125 C-7.11597656 39.51521484 -7.10695312 38.71792969 -7.09765625 37.89648438 C-7.07411585 35.930861 -7.03824547 33.96539225 -7 32 C-10.60256995 31.50834101 -14.20727647 31.03427301 -17.8125 30.5625 C-18.79798828 30.42779297 -19.78347656 30.29308594 -20.79882812 30.15429688 C-37.91883079 27.94003786 -55.18126117 27.82995919 -72.41796875 27.68359375 C-74.49831997 27.66295525 -76.57866766 27.64195736 -78.65901184 27.62062073 C-84.06579677 27.5661104 -89.47261491 27.51639592 -94.87945557 27.46777344 C-100.42422346 27.41703071 -105.96894469 27.3616236 -111.51367188 27.30664062 C-122.34240781 27.19993161 -133.17118472 27.09830276 -144 27 C-144 26.67 -144 26.34 -144 26 C-135.5484311 25.86741801 -127.09683338 25.73691739 -118.64519501 25.60884857 C-114.71787477 25.54927675 -110.79056671 25.48907102 -106.86328125 25.42724609 C-76.87912706 24.95611842 -76.87912706 24.95611842 -62.51171875 24.94921875 C-61.60156006 24.94849365 -60.69140137 24.94776855 -59.75366211 24.94702148 C-42.26637087 24.97973247 -25.26142986 26.16762916 -8 29 C-7.73697485 21.42109464 -7.73697485 21.42109464 -9 14 C-9.185625 13.278125 -9.37125 12.55625 -9.5625 11.8125 C-11.90191171 8.86280697 -15.44654091 8.63683454 -19 8 C-21.74787782 7.8172908 -24.39311398 7.71407142 -27.13720703 7.7215271 C-27.91583383 7.7157347 -28.69446062 7.7099423 -29.49668217 7.70397437 C-32.08376862 7.68708319 -34.67067552 7.68410733 -37.2578125 7.68115234 C-39.12104219 7.67184664 -40.98426774 7.66167702 -42.8474884 7.65071106 C-47.8902335 7.62346941 -52.93295074 7.60827895 -57.97574997 7.59528303 C-63.25152521 7.57962695 -68.5272438 7.55284462 -73.80297852 7.5272522 C-83.78645192 7.48050827 -93.76993604 7.44374293 -103.75346279 7.41057932 C-115.12226998 7.37232694 -126.49102022 7.32292493 -137.85977936 7.27259517 C-161.23981066 7.16934055 -184.61987857 7.08005911 -208 7 C-208 6.67 -208 6.34 -208 6 C-183.20043515 5.79936241 -158.40079469 5.61605554 -133.60095024 5.45341206 C-122.08610288 5.37749024 -110.57134804 5.29588547 -99.05664062 5.20092773 C-89.0210946 5.11818251 -78.98553834 5.04607393 -68.94982541 4.98676747 C-63.63538602 4.95498931 -58.32110467 4.91786523 -53.00680161 4.86800575 C-48.00499522 4.82124615 -43.00329804 4.78870759 -38.00132179 4.7670784 C-36.16548867 4.7566326 -34.32967662 4.74098937 -32.49393654 4.71975899 C-29.98668092 4.69154068 -27.48001983 4.68205576 -24.97262573 4.67720032 C-24.24693166 4.66457084 -23.52123758 4.65194137 -22.77355278 4.63892919 C-18.10743959 4.65608242 -14.9671839 5.55533849 -11 8 C-5.9510893 13.32940574 -4.76458655 18.0342448 -4.5859375 25.26953125 C-4.55688828 26.29103523 -4.55688828 26.29103523 -4.5272522 27.33317566 C-4.46781868 29.49282593 -4.421218 31.65253057 -4.375 33.8125 C-4.33678672 35.28322544 -4.29773306 36.75392929 -4.2578125 38.22460938 C-4.16214817 41.81620789 -4.07798425 45.40796913 -4 49 C-0.7 49 2.6 49 6 49 C5.78609 44.34006484 5.5555065 39.68134275 5.31030273 35.02294922 C5.22936245 33.44244132 5.15276138 31.86170436 5.08081055 30.28076172 C4.58228436 18.47366961 4.58228436 18.47366961 1.7121582 7.05615234 C0.90674288 4.73074684 0.44005208 2.41857058 0 0 Z " fill="#4093FF" transform="translate(253,12)"/>
<path d="M0 0 C9.13294286 1.05138689 18.44579992 2.7218633 24.9375 9.8125 C29.72181985 17.20644886 31.13365835 24.5210209 31.09765625 33.26953125 C31.0962413 33.95053391 31.09482635 34.63153656 31.09336853 35.33317566 C31.08780298 37.49299647 31.07525703 39.65271089 31.0625 41.8125 C31.05748054 43.28320162 31.05291841 44.75390488 31.04882812 46.22460938 C31.03784488 49.8164404 31.02060422 53.4082098 31 57 C30.67 57 30.34 57 30 57 C29.93268677 55.88310791 29.93268677 55.88310791 29.86401367 54.74365234 C29.740372 31.83624324 29.740372 31.83624324 22 11 C21.01 11 20.02 11 19 11 C18.278125 10.401875 17.55625 9.80375 16.8125 9.1875 C11.13890304 4.77470237 5.03578613 3.62819519 -2 3 C-1.34 2.01 -0.68 1.02 0 0 Z " fill="#2987FF" transform="translate(232,2)"/>
<path d="M0 0 C5.06720665 4.01881907 6.4816357 9.602889 7.42651367 15.79516602 C7.73304185 18.71592403 7.97619896 21.63336361 8.1875 24.5625 C8.26935547 25.57119141 8.35121094 26.57988281 8.43554688 27.61914062 C8.63370569 30.07864126 8.81827506 32.53923054 9 35 C9.495 30.545 9.495 30.545 10 26 C10.33 26 10.66 26 11 26 C11.05800828 29.60409919 11.09359869 33.20807851 11.125 36.8125 C11.14175781 37.83666016 11.15851563 38.86082031 11.17578125 39.91601562 C11.18222656 40.89892578 11.18867188 41.88183594 11.1953125 42.89453125 C11.20578613 43.80050049 11.21625977 44.70646973 11.22705078 45.63989258 C11 48 11 48 9 51 C5.875 51.6875 5.875 51.6875 3 52 C3 51.34 3 50.68 3 50 C2.34 49.67 1.68 49.34 1 49 C2.65 49 4.3 49 6 49 C5.78609 44.34006484 5.5555065 39.68134275 5.31030273 35.02294922 C5.22936245 33.44244132 5.15276138 31.86170436 5.08081055 30.28076172 C4.58228436 18.47366961 4.58228436 18.47366961 1.7121582 7.05615234 C0.90674288 4.73074684 0.44005208 2.41857058 0 0 Z " fill="#4496FF" transform="translate(253,12)"/>
<path d="M0 0 C0 0.99 0 1.98 0 3 C-0.86882813 3.17015625 -1.73765625 3.3403125 -2.6328125 3.515625 C-10.42022163 5.15324571 -16.22530251 6.37747828 -21.25 12.9375 C-22.76709577 15.5924176 -23.98414228 18.12173646 -25 21 C-25.66 21 -26.32 21 -27 21 C-27.33 22.32 -27.66 23.64 -28 25 C-27.51473373 20.22821506 -26.89768253 16.42792589 -25 12 C-25 11.01 -25 10.02 -25 9 C-18.33975413 2.68510021 -9.06294112 -0.29340457 0 0 Z " fill="#2C88FF" transform="translate(37,2)"/>
<path d="M0 0 C0.33 0 0.66 0 1 0 C2.03435084 7.286427 1.94735442 14.22372428 1.5625 21.5625 C1.51029297 22.66658203 1.45808594 23.77066406 1.40429688 24.90820312 C1.27583791 27.60584136 1.14093867 30.3029899 1 33 C1.99 33 2.98 33 4 33 C4 33.66 4 34.32 4 35 C1.125 35.1875 1.125 35.1875 -2 35 C-4.16926659 31.74610012 -4.24080049 30.86604043 -4.1953125 27.11328125 C-4.18886719 26.17548828 -4.18242188 25.23769531 -4.17578125 24.27148438 C-4.15902344 23.29501953 -4.14226563 22.31855469 -4.125 21.3125 C-4.11597656 20.32443359 -4.10695313 19.33636719 -4.09765625 18.31835938 C-4.0740843 15.87866235 -4.04118022 13.43945303 -4 11 C-3.67 11 -3.34 11 -3 11 C-3 17.6 -3 24.2 -3 31 C-2.34 31 -1.68 31 -1 31 C-1.00523682 30.20303711 -1.01047363 29.40607422 -1.01586914 28.58496094 C-1.036659 24.97331531 -1.04966661 21.36168229 -1.0625 17.75 C-1.07087891 16.49574219 -1.07925781 15.24148437 -1.08789062 13.94921875 C-1.09111328 12.74394531 -1.09433594 11.53867187 -1.09765625 10.296875 C-1.10289307 9.18666992 -1.10812988 8.07646484 -1.11352539 6.93261719 C-1.01658493 4.42842621 -0.73230276 2.3818844 0 0 Z " fill="#4F9CFF" transform="translate(8,28)"/>
<path d="M0 0 C5.25002294 4.1638113 6.35829043 9.96646383 7.6875 16.25 C8.15273857 21.83286281 8.07577021 27.40142367 8 33 C7.67 33 7.34 33 7 33 C6.67 31.35 6.34 29.7 6 28 C5.67 28 5.34 28 5 28 C4.94392578 26.76636719 4.94392578 26.76636719 4.88671875 25.5078125 C4.50880368 19.09066642 3.80479629 13.31000517 1.71875 7.21875 C0.94610305 4.83362245 0.45120318 2.4642635 0 0 Z " fill="#78B3FF" transform="translate(253,12)"/>
<path d="M0 0 C0.33 0 0.66 0 1 0 C1.16494885 10.3734499 0.65043638 20.6510926 0 31 C-0.33 31 -0.66 31 -1 31 C-1 25.39 -1 19.78 -1 14 C-5.29 13.34 -9.58 12.68 -14 12 C-9.66314105 9.1087607 -7.07581238 10.26437502 -2 11 C-1.34 7.37 -0.68 3.74 0 0 Z " fill="#539EFF" transform="translate(247,30)"/>
<path d="M0 0 C0 0.33 0 0.66 0 1 C-11.03913945 1.16207546 -21.98440762 0.65764731 -33 0 C-33 -0.33 -33 -0.66 -33 -1 C-21.679589 -2.50938813 -11.21568821 -2.22722886 0 0 Z " fill="#3D92FF" transform="translate(236,40)"/>
<path d="M0 0 C0.66 0.33 1.32 0.66 2 1 C3 4 3 4 2.00390625 6.48046875 C1.52824219 7.37378906 1.05257813 8.26710938 0.5625 9.1875 C0.08941406 10.08855469 -0.38367188 10.98960938 -0.87109375 11.91796875 C-1.24363281 12.60503906 -1.61617187 13.29210938 -2 14 C-2.66 14 -3.32 14 -4 14 C-4.33 15.32 -4.66 16.64 -5 18 C-4.51473373 13.22821506 -3.89768253 9.42792589 -2 5 C-2 4.01 -2 3.02 -2 2 C-1.34 1.34 -0.68 0.68 0 0 Z " fill="#559FFF" transform="translate(14,9)"/>
<path d="M0 0 C0.33 0 0.66 0 1 0 C1.33 2.97 1.66 5.94 2 9 C1.67 9 1.34 9 1 9 C0.67 16.59 0.34 24.18 0 32 C-0.33 32 -0.66 32 -1 32 C-1.02901401 27.41667994 -1.04680348 22.83338349 -1.0625 18.25 C-1.07087891 16.94804688 -1.07925781 15.64609375 -1.08789062 14.3046875 C-1.09111328 13.05429687 -1.09433594 11.80390625 -1.09765625 10.515625 C-1.10289307 9.36352539 -1.10812988 8.21142578 -1.11352539 7.02441406 C-1.01804485 4.48073036 -0.74917261 2.41601687 0 0 Z " fill="#96C4FF" transform="translate(8,28)"/>
<path d="M0 0 C1.32 0.66 2.64 1.32 4 2 C3.071875 2.391875 2.14375 2.78375 1.1875 3.1875 C-2.30740499 5.17479892 -3.36651237 6.3891326 -5 10 C-5.70670728 12.69254991 -5.70670728 12.69254991 -6 15 C-6.66 14.34 -7.32 13.68 -8 13 C-7.78326764 8.12352196 -6.31817713 5.51336402 -3 2 C-2.01 1.34 -1.02 0.68 0 0 Z " fill="#3D92FF" transform="translate(29,18)"/>
<path d="M0 0 C3.1323445 0.22373889 4.05671496 1.05986579 6.25 3.375 C9.03769486 7.81788869 8.32294243 12.9585098 8 18 C7.67 18 7.34 18 7 18 C6.87882813 17.26394531 6.75765625 16.52789062 6.6328125 15.76953125 C6.46523437 14.79371094 6.29765625 13.81789063 6.125 12.8125 C5.96257812 11.84957031 5.80015625 10.88664062 5.6328125 9.89453125 C5.01001742 7.04582042 4.32134748 4.60111409 3 2 C2.01 1.67 1.02 1.34 0 1 C0 0.67 0 0.34 0 0 Z " fill="#2D89FF" transform="translate(239,20)"/>
<path d="M0 0 C1 2 1 2 0.328125 4.34765625 C-0.02765625 5.24355469 -0.3834375 6.13945312 -0.75 7.0625 C-1.26820312 8.41021484 -1.26820312 8.41021484 -1.796875 9.78515625 C-3 12 -3 12 -6 13 C-3.88852459 3.95081967 -3.88852459 3.95081967 -2 1 C-1.34 0.67 -0.68 0.34 0 0 Z " fill="#2685FF" transform="translate(12,13)"/>
<path d="M0 0 C0.33 0 0.66 0 1 0 C1.33 5.94 1.66 11.88 2 18 C3.32 18.66 4.64 19.32 6 20 C4.34385343 20.38218767 2.67542976 20.71395102 1 21 C0 20 0 20 -0.11352539 18.05053711 C-0.10567017 16.8015564 -0.10567017 16.8015564 -0.09765625 15.52734375 C-0.09443359 14.62822266 -0.09121094 13.72910156 -0.08789062 12.80273438 C-0.07951172 11.85720703 -0.07113281 10.91167969 -0.0625 9.9375 C-0.05798828 8.98810547 -0.05347656 8.03871094 -0.04882812 7.06054688 C-0.0370011 4.70696935 -0.02052025 2.35351523 0 0 Z " fill="#2A87FF" transform="translate(247,43)"/>
<path d="M0 0 C0 0.99 0 1.98 0 3 C-2.64 3.33 -5.28 3.66 -8 4 C-8 3.34 -8 2.68 -8 2 C-8.66 1.67 -9.32 1.34 -10 1 C-6.59437148 0.22157062 -3.49234244 -0.09978121 0 0 Z " fill="#4094FF" transform="translate(37,2)"/>
<path d="M0 0 C2.31 0.66 4.62 1.32 7 2 C7 2.66 7 3.32 7 4 C5.02 4 3.04 4 1 4 C0.67 2.68 0.34 1.36 0 0 Z " fill="#2987FF" transform="translate(5,59)"/>
</svg>
