<svg xmlns="http://www.w3.org/2000/svg" xmlns:xlink="http://www.w3.org/1999/xlink" width="800" zoomAndPan="magnify" viewBox="0 0 600 599.999999" height="800" preserveAspectRatio="xMidYMid meet" version="1.0"><defs><clipPath id="4ec3304414"><path d="M 373 92.625 L 463 92.625 L 463 273 L 373 273 Z M 373 92.625 " clip-rule="nonzero"/></clipPath><clipPath id="215867a52c"><path d="M 279 365 L 478 365 L 478 507.375 L 279 507.375 Z M 279 365 " clip-rule="nonzero"/></clipPath></defs><path fill="#ffffff" d="M 227.582031 354.753906 C 228.554688 356.695312 230.496094 357.992188 232.441406 358.316406 C 232.441406 358.316406 360.425781 377.109375 360.75 377.109375 C 363.019531 377.109375 365.285156 375.8125 366.582031 373.871094 L 393.476562 325.914062 L 404.492188 335.960938 C 405.789062 336.933594 407.410156 337.582031 408.703125 337.582031 C 410.324219 337.582031 412.269531 336.933594 413.566406 335.3125 C 415.832031 332.71875 415.832031 328.507812 413.242188 326.238281 C 413.242188 326.238281 350.058594 269.214844 350.058594 269.214844 C 348.113281 266.945312 344.875 267.917969 344.875 267.917969 L 240.867188 286.710938 C 237.300781 287.359375 235.03125 290.597656 235.679688 294.164062 C 236.328125 297.402344 238.921875 299.347656 242.160156 299.347656 C 242.484375 299.347656 257.390625 296.753906 257.390625 296.753906 L 227.90625 348.921875 C 226.933594 350.863281 226.609375 352.808594 227.582031 354.753906 Z M 274.238281 293.839844 L 344.226562 281.203125 L 383.753906 316.84375 L 357.1875 363.824219 L 243.78125 346.976562 Z M 274.238281 293.839844 " fill-opacity="1" fill-rule="nonzero"/><path fill="#ffffff" d="M 351.355469 317.492188 C 348.113281 315.871094 344.226562 317.167969 342.605469 320.40625 L 334.828125 335.3125 L 295.625 329.15625 L 300.484375 320.40625 C 302.105469 317.167969 301.132812 313.277344 297.890625 311.660156 C 294.652344 310.039062 290.761719 311.011719 289.144531 314.25 L 279.421875 331.101562 C 278.449219 333.042969 278.449219 335.3125 279.097656 337.257812 C 280.070312 339.199219 281.691406 340.496094 283.960938 340.820312 C 283.960938 340.820312 337.746094 348.921875 338.070312 348.921875 C 340.335938 348.921875 342.605469 347.625 343.902344 345.355469 L 353.621094 326.5625 C 355.890625 323 354.59375 319.113281 351.355469 317.492188 Z M 351.355469 317.492188 " fill-opacity="1" fill-rule="nonzero"/><g clip-path="url(#4ec3304414)"><path fill="#ffffff" d="M 461.84375 198.253906 C 461.84375 194.691406 458.925781 191.773438 455.363281 191.773438 L 441.753906 191.773438 L 431.0625 154.1875 C 438.839844 149.652344 444.023438 141.550781 444.023438 131.832031 C 444.023438 119.84375 435.597656 109.796875 424.582031 106.882812 L 424.582031 99.105469 C 424.582031 95.542969 421.664062 92.625 418.101562 92.625 C 414.535156 92.625 411.621094 95.542969 411.621094 99.105469 L 411.621094 106.882812 C 400.28125 109.796875 392.179688 119.84375 392.179688 131.832031 C 392.179688 141.226562 397.363281 149.652344 405.140625 154.1875 L 394.449219 191.773438 L 380.839844 191.773438 C 377.277344 191.773438 374.359375 194.691406 374.359375 198.253906 C 374.359375 201.816406 377.277344 204.734375 380.839844 204.734375 L 390.558594 204.734375 L 373.710938 264.027344 C 372.738281 267.59375 374.683594 271.15625 378.246094 272.128906 C 378.894531 272.453125 379.542969 272.453125 379.867188 272.453125 C 382.785156 272.453125 385.375 270.507812 386.023438 267.59375 L 403.84375 204.734375 L 432.035156 204.734375 L 444.023438 246.855469 L 447.910156 260.464844 L 449.855469 267.59375 C 450.503906 270.507812 453.417969 272.453125 456.011719 272.453125 C 456.660156 272.453125 457.308594 272.453125 457.632812 272.128906 C 461.195312 271.15625 463.140625 267.59375 462.167969 264.027344 L 460.871094 259.492188 L 457.953125 248.800781 L 445.640625 205.058594 L 455.363281 205.058594 C 458.925781 204.734375 461.84375 201.816406 461.84375 198.253906 Z M 407.734375 191.773438 L 417.453125 157.753906 C 417.777344 157.753906 417.777344 157.753906 418.101562 157.753906 C 418.425781 157.753906 418.425781 157.753906 418.75 157.753906 L 428.46875 191.773438 Z M 418.101562 144.792969 C 410.972656 144.792969 405.140625 138.960938 405.140625 131.832031 C 405.140625 124.703125 410.972656 118.871094 418.101562 118.871094 C 425.230469 118.871094 431.0625 124.703125 431.0625 131.832031 C 431.0625 138.960938 425.230469 144.792969 418.101562 144.792969 Z M 418.101562 144.792969 " fill-opacity="1" fill-rule="nonzero"/></g><path fill="#ffffff" d="M 228.230469 270.507812 C 225.3125 268.566406 221.101562 269.214844 219.15625 272.453125 L 152.410156 372.898438 C 151.113281 374.84375 151.113281 377.109375 151.761719 379.054688 C 152.734375 381 154.675781 382.617188 156.621094 382.941406 L 335.800781 410.160156 L 357.835938 400.4375 L 168.933594 371.601562 L 230.171875 279.582031 C 232.117188 276.664062 231.46875 272.453125 228.230469 270.507812 Z M 228.230469 270.507812 " fill-opacity="1" fill-rule="nonzero"/><path fill="#ffffff" d="M 94.734375 357.992188 C 90.847656 380.351562 105.425781 401.410156 127.460938 405.300781 C 127.785156 405.300781 291.085938 429.601562 291.085938 429.601562 L 313.445312 419.878906 C 313.445312 419.878906 130.375 392.664062 129.726562 392.664062 C 114.824219 390.070312 104.78125 375.488281 107.371094 360.585938 C 108.667969 353.457031 114.175781 346.652344 121.953125 342.765625 C 127.136719 340.171875 138.152344 336.609375 151.761719 343.414062 C 154.675781 345.03125 158.242188 344.058594 160.1875 341.144531 L 231.792969 233.246094 L 363.992188 249.773438 L 367.554688 237.136719 L 239.570312 220.933594 L 266.136719 180.757812 C 268.082031 177.839844 267.433594 173.628906 264.195312 171.683594 C 263.546875 171.359375 262.25 170.710938 262.25 170.710938 C 232.441406 159.695312 208.789062 180.109375 200.363281 192.421875 L 101.214844 342.441406 C 100.890625 343.089844 95.707031 353.457031 94.734375 357.992188 Z M 211.703125 200.199219 C 212.351562 199.226562 227.582031 177.839844 250.585938 181.40625 L 152.085938 329.480469 C 143.660156 326.5625 134.914062 325.914062 126.8125 327.535156 Z M 211.703125 200.199219 " fill-opacity="1" fill-rule="nonzero"/><path fill="#ffffff" d="M 453.417969 357.992188 L 507.851562 264.027344 C 508.824219 262.085938 509.148438 259.816406 508.175781 257.871094 C 507.207031 255.929688 505.261719 254.632812 503.316406 254.308594 L 472.210938 250.421875 L 475.128906 260.464844 C 475.453125 261.761719 475.777344 262.734375 475.777344 264.027344 L 491.976562 265.972656 L 433.328125 367.066406 Z M 453.417969 357.992188 " fill-opacity="1" fill-rule="nonzero"/><g clip-path="url(#215867a52c)"><path fill="#ffffff" d="M 424.582031 507.363281 C 427.171875 507.363281 429.765625 505.742188 430.738281 503.152344 L 477.394531 373.871094 C 478.367188 371.277344 477.71875 368.6875 475.777344 367.066406 C 473.832031 365.445312 471.238281 364.796875 468.648438 365.769531 L 283.3125 447.421875 C 280.71875 448.394531 279.421875 450.984375 279.421875 453.578125 C 279.421875 456.167969 281.367188 458.4375 283.636719 459.410156 L 422.3125 507.039062 C 423.285156 507.363281 423.933594 507.363281 424.582031 507.363281 Z M 303.722656 452.605469 L 460.222656 383.589844 L 420.691406 492.78125 Z M 303.722656 452.605469 " fill-opacity="1" fill-rule="nonzero"/></g><path fill="#ffffff" d="M 432.359375 412.425781 C 430.414062 410.808594 427.820312 410.160156 425.230469 411.132812 L 359.453125 439.96875 C 356.863281 440.941406 355.566406 443.53125 355.566406 446.125 C 355.566406 448.71875 357.511719 450.984375 360.101562 451.957031 L 409.351562 468.804688 C 410 469.128906 410.648438 469.128906 411.621094 469.128906 C 414.214844 469.128906 416.804688 467.511719 417.777344 464.917969 L 434.300781 418.90625 C 434.949219 416.964844 434.300781 414.371094 432.359375 412.425781 Z M 407.410156 454.875 L 379.867188 445.476562 L 416.480469 429.277344 Z M 407.410156 454.875 " fill-opacity="1" fill-rule="nonzero"/><path fill="#ffffff" d="M 430.089844 245.234375 L 406.761719 242.320312 L 403.195312 254.957031 L 433.976562 258.84375 Z M 430.089844 245.234375 " fill-opacity="1" fill-rule="nonzero"/></svg>